<svg id="Layer_1" data-name="Layer 1" xmlns="http://www.w3.org/2000/svg" viewBox="0 0 512 512"><defs><style>.cls-1{fill:#fff;}</style></defs><path class="cls-1" d="M489.87,83.7H453.21V209.82h14.66v57.91H440V76.38A70.37,70.37,0,0,0,369.63,6H138A70.39,70.39,0,0,0,67.57,76.38V264.07H43.38v-61.6h15.4V76.38H22.13V202.47H37.52V270h30V407.78a70.39,70.39,0,0,0,36.66,61.78V506h61.58V478.15H340.3V506h61.6V470.26A70.26,70.26,0,0,0,440,407.77V273.58h33.73V209.81h16.13V83.7Zm-316.71-63H337.37V58.79H173.16Zm17.58,384.18H99.84v-41h90.9Zm220,0H319.78v-41h90.91Zm0-132s-17.6,55.74-158.36,55.74S96.89,272.86,96.89,272.86V79.3h313.8Z"/></svg>