<svg id="Layer_1" data-name="Layer 1" xmlns="http://www.w3.org/2000/svg" viewBox="0 0 512 512"><defs><style>.cls-1{fill:#fff;}</style></defs><path class="cls-1" d="M506.69,299.34A63,63,0,0,0,496,276.08c-2.48-3.46-2.32-9-2.92-13.62-3.32-25.71-9.59-50.58-21.2-73.89-18.89-37.94-50-59.89-90.72-69.47-24.8-5.83-50-7.27-75.32-7.26-26.77,0-53.47,1-79.73,7.18-41.66,9.83-73.09,32.61-91.61,71.81a16.14,16.14,0,0,1-9.15,8.67C97.13,211,69,222.58,41,234.63a23.63,23.63,0,0,0-10.9,9.71c-3.71,6.95-5.5,14.89-8.42,22.28-1.4,3.52-3,7.27-5.47,10a40.23,40.23,0,0,0-7.65,43.24c6.84,15.69,21.91,25.82,37.91,25.47a9.13,9.13,0,0,0,1.39-.34c1.17-24.42,11.25-44.38,31.7-58.49a68.19,68.19,0,0,1,41.08-12.14c32.85.78,67.42,25.41,70,70.78H325.93c1.67-45.43,39.34-71.17,71.82-71,33.53.21,69.48,26.91,71.16,70.42,17.52-.71,32.44-13.57,36.79-31.7.3-1.26.66-2.49,1-3.74Z"/><path class="cls-1" d="M119.7,400.15c-30,.4-55.27-24.3-55.42-54.19a55.28,55.28,0,0,1,54.87-55.34c29.49-.3,54.28,24.48,54.57,54.55C174,375,149.67,399.75,119.7,400.15Zm-.36-24.92A30.19,30.19,0,0,0,149,345c-.07-16.13-14.13-29.74-30.42-29.45a29.88,29.88,0,0,0-29.29,30C89.53,362.19,103,375.49,119.34,375.23Z"/><path class="cls-1" d="M397.91,290.64A54.84,54.84,0,0,1,452,347c-.65,29.83-25.85,53.83-55.79,53.13-29.77-.7-54.1-25.77-53.41-55.07C343.5,314.45,368.2,290.06,397.91,290.64Zm-.13,84.58a30,30,0,0,0,29.54-30.29c-.09-15.82-14-29.48-30-29.4-16.26.07-30,13.94-29.73,30.11C367.82,362.18,381.46,375.55,397.78,375.22Z"/></svg>