<svg id="Layer_1" data-name="Layer 1" xmlns="http://www.w3.org/2000/svg" viewBox="0 0 512 512"><defs><style>.cls-1{fill:#fff;}</style></defs><path class="cls-1" d="M138.86,346.68l64.79-52.25H150.36c-1.15-6.79-1.15-12.8-3.35-17.87-1.55-3.57-6-8.29-9.28-8.34-22.37-.36-44.69,1-66.08,8.53-4.05,1.43-7.81,3.68-12.51,5.94L34.79,229.23,84,204.54c-26.48,1.13-45.06,28-73.63,22.63l17-14.89c-8-17.6-14.34-31.6-21.35-47,13.28,0,25-.21,36.77.17,2.2.08,4.44,2.31,6.47,3.82l20.57,21.19,31.32,27,50.85.48s42.58.49,79.73.49H242.5c-5.61-10.23-10.41-19-16.06-29.24l43.56,0,37,29.35c20.85.74,72.27.57,94.87,1a1.91,1.91,0,0,1,1.89,1.95l-.1,10.16a9.71,9.71,0,0,0,5.19,8.71l.86.33a330.6,330.6,0,0,0,56.1,15.79c21.83,4.12,48.71,12.16,37.63,24.73-6.49,7.36-19.18,8.58-28,9.52-53.22,5.64-105.38,2.67-158.78,3.38-4.73,0-14.12,3.13-14.12,3.13L201.4,339.59l-16.92,6.9C169.3,347.14,154.07,346.61,138.86,346.68Zm55.45-110.57H178.17c-14,0-14,0-14.75,14.8h15.47C191.79,250.91,191.79,250.91,194.31,236.11Zm96.19,0H274.26c-13.81,0-13.81,0-15.62,14.35h28C287.79,246.08,289,241.75,290.5,236.11Zm-48.59,0H225.28c-12.8,0-13.52.74-14.07,14.8h16.43C239.81,250.91,239.81,250.91,241.91,236.11Zm95.34,0H320.89c-12.76,0-13.67.94-13.91,14.8h15.55C335.9,250.91,335.9,250.91,337.25,236.11Z"/><path class="cls-1" d="M130.08,271.72V305c-20.18-.15-41.28-1.71-61.34-9.91-2.61-1.07-4.45-4-6.64-6.13,2.28-2.35,4.14-5.7,6.92-6.87C88.85,273.73,110,273.08,130.08,271.72Z"/><path class="cls-1" d="M139.34,305.2c-8.38-8.12-8.71-23-1.19-33C146.7,278.17,147.52,295,139.34,305.2Z"/></svg>