<svg id="Layer_1" data-name="Layer 1" xmlns="http://www.w3.org/2000/svg" viewBox="0 0 512 512"><defs><style>.cls-1{fill:#fff;}</style></defs><path class="cls-1" d="M135.56,357.82c-22.65-12.6-49.7-16.41-72.19-29.27,6.47-5.28,12.35-10.42,18.65-15,1.64-1.19,4.73-1.12,6.94-.64,17.91,3.87,35.77,8,53.65,12,1.54.35,3.11.6,4.64,1,5.91,1.59,9.54-.18,13.67-5.34,13.86-17.3,28.53-34,43.26-50.55,7.72-8.68,16.23-16.66,24.34-25,4.4-4.52,4.07-7.53-1.21-11-17.6-11.69-34.78-24.11-53-34.76-13.46-7.86-28.24-13.49-42.51-19.93Q88,159.58,44.12,140c-1.41-.64-2.76-1.43-5.28-2.74,6.19-4.94,11.37-10.1,17.5-13.55,3.59-2,8.88-2.34,13.12-1.66,61.61,9.91,123.17,20.13,184.74,30.27,15.13,2.49,30.24,5.11,45.42,7.31a10.22,10.22,0,0,0,7.37-2.14q42.88-38.85,85.42-78.09c16.46-15.2,34.73-27.58,55.35-36.31a51.84,51.84,0,0,1,14.74-3.77c7.64-.79,11.6,3.11,10.47,10.73a71.15,71.15,0,0,1-5.49,18.61c-10.42,23.07-26,42.37-43.49,60.61-23.62,24.68-46.09,50.46-69.2,75.64-2.49,2.71-2.76,5.22-2.2,8.56,12.33,74.43,24.14,149,37.19,223.25,2.87,16.4-4.53,26-15.31,36.08-4.21-9.29-8.28-18.23-12.3-27.18-14.77-32.93-28.91-66.15-44.56-98.65-7-14.48-16.95-27.53-25.65-41.18-4.45-7-9.11-13.81-13.67-20.72-3.45-5.24-6.33-5.77-11-1.41-14.61,13.79-28.78,28.06-43.71,41.47-11,9.87-22.87,18.75-34.45,27.94-2.73,2.17-4.29,4.38-3.47,8.05,3.36,15.13,6.59,30.29,9.9,45.43,1.16,5.34,2.17,10.73,3.7,16a10.54,10.54,0,0,1-2.06,10.37c-4.3,5.11-8.84,10-13.82,15.59-13.08-21.09-17.83-50.55-29.52-72l-6.15-12Z"/></svg>