<svg id="Layer_1" data-name="Layer 1" xmlns="http://www.w3.org/2000/svg" viewBox="0 0 512 512"><defs><style>.cls-1{fill:#fff;}</style></defs><path class="cls-1" d="M500.65,342.57a7.94,7.94,0,0,0-11.06,0l-27.32,27.84H388.9V337h62.37a92,92,0,0,0,17.42-1.65A23.22,23.22,0,0,0,483,326.43c3.34-3.8,4.92-9.14,4.92-16.34,0-4.88-1.48-11-4.15-18.64l-23.63-56.31c-7.56-17.25-17.46-29.38-29.74-36.13a77,77,0,0,0-38.64-10.21H297.27V144h27.65c1.68,2.76,3.63,4.5,5.79,5.25a15,15,0,0,0,5.59,1.26H469.14c4.31,0,7.56-1.22,9.71-3.62a16.9,16.9,0,0,0,4-8.57,12.62,12.62,0,0,0-3.22-8.12q-3.29-4.16-10.48-4.16H341.26c-6,0-9.84.75-11.78,2a15,15,0,0,0-4.56,5.4H249.21c-1-1.14-2.23-2.54-3.62-4.15s-3.92-2.43-7.7-2.43H103.48c-2.16,0-4.68.92-7.78,2.87-2.93,2-4.4,5-4.4,9.4,0,4.23,1.47,7.59,4.4,9.69,3.13,2.24,5.46,3.33,7,3.33H237.89a25.19,25.19,0,0,0,5.25-1.22c2.45-.83,4.42-2.86,6.07-6.19h28.51v44.05H107.62a54.29,54.29,0,0,0-18.31-23.28,47.49,47.49,0,0,0-28.93-9.35c-14.13,0-26.11,5-36.25,15a49.16,49.16,0,0,0-15,36.3c0,14.1,4.93,26,15.05,35.78a49.8,49.8,0,0,0,36.24,14.71c16.22,0,29-6,38.18-18l110.79,41.58L224,318.21A60.23,60.23,0,0,0,232.53,331c3.55,4.05,11.06,6,22.49,6h49.23v33.46H224a7.72,7.72,0,1,0,0,15.44H466a6.94,6.94,0,0,0,5.72-3.09l29-29.22A7.86,7.86,0,0,0,500.65,342.57Zm-90.21-130.9a47.45,47.45,0,0,1,18.29,10.15c5.18,4.68,9.94,11.78,14.37,21.55a94.14,94.14,0,0,0,4,10.65c1.54,3.68,3.22,7.76,4.82,12.17H410.43V211.67ZM51,220.63A55.81,55.81,0,0,0,63.65,227L80,233.54a32.75,32.75,0,0,1-19.58,6.56,33.34,33.34,0,0,1-23.7-9.32A30.8,30.8,0,0,1,27,207.6c0-9.31,3.2-17,9.68-23.24A33.19,33.19,0,0,1,60.38,175c11.38,0,20.27,4.62,26.87,13.86H64.44a20.26,20.26,0,0,0-13.83,4.87C46.82,196.94,45,201.53,45,207.6S47,217.86,51,220.63Zm302.45-11.41h36.65v56.2H353.44Zm-56.17.78h35.85v56.19H297.27Zm19.87,127h58.77v33.47H317.14Z"/></svg>