<svg id="Layer_1" data-name="Layer 1" xmlns="http://www.w3.org/2000/svg" viewBox="0 0 512 512"><defs><style>.cls-1{fill:#fff;}</style></defs><path class="cls-1" d="M477.55,500.44H379.19a31.54,31.54,0,0,0,.45-3.74q0-45.56,0-91.11c0-1.07-.16-2.15-.28-3.51h-247V407c0,18.28,0,36.57,0,54.85-.06,12.86-.29,25.72-.45,38.57H34.45c0-2.22.12-4.45.12-6.67V93H477.43v5q0,135.57,0,271.15Q477.44,434.81,477.55,500.44ZM328.25,278.58V228.15H280.2v50.43ZM80.67,228.09v50.36h47.85V228.09Zm-.11-93.15v50.31h48V134.94Zm199.51,50.29h48.17V135H280.07ZM128.45,371.65V321.32H80.55v50.33Zm199.68,0V321.28H280.18v50.41ZM180.4,228.08v50.45h47.89V228.08Zm199.76,0V278.5h47.77V228.05Zm-151.82-93H180.53v50h47.81ZM428,134.94H380.11v50.28H428ZM228.13,371.66V321.25H180.54v50.41ZM428,321.27H380.27v50.38H428Z"/><path class="cls-1" d="M403.06,11.56V79H108.94V11.56ZM224.37,27.3c-5.3,1.95-11.09,3-15.67,6a14.66,14.66,0,0,0,.93,25.31c10,5.67,20.57,5.41,30.34-.51a14.81,14.81,0,0,0-.29-25.65C235.33,29.92,230,29.12,224.37,27.3ZM165,41.89V29.16h-8V61.53h8.42V47.62h20.24v13.9H194V29.2h-8.37V41.89ZM317.88,29.3H290.55V61.61h28.52c-.11-1.67-.2-3-.32-4.89H299.16v-9.6h18c-.2-1.94-.33-3.25-.5-5H299.19v-8.4h18.69ZM270.7,34h13.82c-.1-2-.17-3.33-.25-4.81H248.73v5h13.21v27.4h8.76ZM327,61.55h28.3c-.11-1.73-.2-3.08-.33-5H335.28V29.22H327Z"/><path class="cls-1" d="M147.14,500.44c.15-1.88.45-3.76.45-5.65q0-32.43,0-64.88v-8.35H248.36v78.88Z"/><path class="cls-1" d="M263.64,500.44v-78.9H364.39v5q0,34.11,0,68.22c0,1.89.3,3.77.45,5.65Z"/><path class="cls-1" d="M224.41,33.38c8.11-.05,13.52,4.83,13.44,12.12s-5.29,11.92-13.13,12c-8.07,0-13.56-4.91-13.47-12.14S216.6,33.41,224.41,33.38Z"/></svg>