<svg id="Layer_1" data-name="Layer 1" xmlns="http://www.w3.org/2000/svg" viewBox="0 0 512 512"><defs><style>.cls-1{fill:#fff;}</style></defs><path class="cls-1" d="M380,499.86s-2.66,2-20.49-3.13c-19.22-5.54-38.15-12-57.3-17.8-16.44-4.95-32.85-10.31-49.61-13.87-38.22-8.14-75.13-2.08-110.9,12.64-4.81,2-9.58,4-15.15,6.41-18.2-53-36.32-105.83-54.56-159l47-22.52q50.83-24.37,101.66-48.75c11-5.26,21.9-10.55,32.93-15.66a6.28,6.28,0,0,1,4.72-.15Q348.7,281.19,439,324.56a9.13,9.13,0,0,1,1,.74c-4.44,13.15-8.87,26.4-13.4,39.61q-19.47,56.82-39,113.61c-2.45,7.14-5,14.23-7.59,21.34Z"/><path class="cls-1" d="M204.59,11.75c10.95,2.68,19.27,8.46,23.27,19.5.3.83,1.89,1.46,3,1.69,16.48,3.38,23.13,13.44,19.64,28.5,3.86,2.9,7.89,5.08,10.68,8.33,1.68,2,2.14,5.64,1.9,8.45A12.33,12.33,0,0,1,251.44,90c-8.48.72-12.46-2.8-15.82-14-8.5,1.91-15.86,0-22-6.39a4.76,4.76,0,0,0-4.07-1c-16.34,5.65-36.3-5.84-37.91-25.67-1-11.87,7.14-25.27,19-29.22,2.09-.7,4.24-1.26,6.36-1.89Z"/><path class="cls-1" d="M380,282.25c-17.2-8.21-33.58-16-49.94-23.86-23.49-11.26-46.92-22.63-70.49-33.73a9.26,9.26,0,0,0-7,0q-58.2,27.66-116.22,55.64c-1.25.59-2.58,1-4.24,1.65V231.54c0-10.8,0-21.6,0-32.41,0-8.83,5-14,13.62-14.07,28-.06,55.89,0,83.83,0q50-.06,100-.18c11.91,0,23.82-.11,35.73,0C375.15,185,380,190.13,380,200q0,38.37,0,76.74Z"/><path class="cls-1" d="M184.76,171.81c-.47-6.77-1-13.29,5.4-17.34a16.19,16.19,0,0,1,7.89-2.46c9.82-.29,19.65-.12,29.95-.12,1.85-16.8,3.68-33.38,5.53-50.23h45.08c1.82,16.63,3.63,33.21,5.5,50.23h27.63c11,0,15.88,4.87,15.83,15.86,0,1.25,0,2.49,0,4.06Z"/></svg>