<svg id="Layer_1" data-name="Layer 1" xmlns="http://www.w3.org/2000/svg" viewBox="0 0 512 512"><defs><style>.cls-1{fill:#fff;}</style></defs><path class="cls-1" d="M14.73,233.41c2.87-5.51,7.52-7.31,13.55-7.14,8.77.26,17.56.07,27.06.07v-5.28q0-33.93,0-67.84c0-8.33,2-10.38,10.18-10.38h67.37c7.88,0,9.9,2.09,9.92,10.14,0,8.63,0,17.26,0,26.65,3.9,0,7.59,0,11.28,0,5.34,0,6.26.9,6.28,6.36.06,11.46,0,22.93,0,34.39v5.91c3.88,0,7.45.27,10.92-.17,1-.12,2.36-2.23,2.47-3.53,1.74-20.64,3.29-41.31,4.9-62l8.16-104.22c.21-2.66.21-5.35.56-8,.83-6.26,4.3-9.82,10.54-9.9q22.6-.32,45.22,0c6.6.09,10.18,3.8,10.75,10.73,1.71,21,3.26,41.95,4.89,62.92,2.7,34.58,5.36,69.17,8.18,103.75.85,10.45,1.07,10.44,11.74,10.43q8.47,0,17-.08a8.65,8.65,0,0,0,1.62-.39V201.11c-3.09,0-6,.15-9,0-7.75-.47-12.16-4.42-12.3-12q-.42-23.31,0-46.64c.15-7.66,4.81-12.41,12.37-11.67,13,1.26,23.92-3.22,35.13-9.1,49.17-25.78,98.61-51,148-76.39a27.43,27.43,0,0,1,9.7-3.15,14,14,0,0,1,15.48,12.08,100.71,100.71,0,0,1,.11,19.72c-.38,5-4,8.28-7.9,11.18q-63,46.28-126,92.59c-3.09,2.26-4.5,4.46-4.39,8.42.29,11-3.86,14.94-14.94,15H339v25.21h5.4q34.15,0,68.31,0c10.62,0,13.78,3.18,13.79,13.75v84.33c0,10.31-3.28,13.61-13.47,13.62H370.89V459.57c0,10.72-3.34,14.06-14.05,14.07q-29,0-57.95,0c-9.79,0-13.36-3.52-13.36-13.3q0-57.72,0-115.43v-6.47H155.68V458.72c0,12.11-2.84,14.92-15.05,14.92H84.09c-10.36,0-13.71-3.41-13.71-13.91V338.05H59.46c-10.52,0-21.05-.19-31.56.07-6.16.15-10.67-1.83-13.17-7.64Zm464.45-169-1.46-1L348,130.15c8.52,3.12,10.6,6.14,10.63,14.7,0,3.94,0,7.87,0,12.38,1.41-.91,2-1.22,2.46-1.59q57.24-42.12,114.39-84.38C477.42,69.86,478,66.7,479.18,64.36Zm-272.71-6c-.57,7.82-1.21,15.13-1.53,22.46-.05,1.3,1,2.9,1.95,4,9.85,10.73,19.8,21.38,29.74,32a25.16,25.16,0,0,0,2.44,2c-1.73-20.6-3.4-40.49-5.07-60.41Zm20.37,89.23-25.2-26.94c-2,25.54-3.88,49.72-5.77,73.91l.89.25Zm21,78.46c-1.43-17.38-2.82-34.19-4.33-52.37l-33.3,52.37Z"/></svg>