<svg xmlns="http://www.w3.org/2000/svg" width="18" height="18" viewBox="0 0 18 18"><g transform="translate(0.012 0.003)"><path d="M202.875,5.093c-.048.264-.075.532-.145.788a4.643,4.643,0,0,1-3.679,3.5,4.425,4.425,0,0,1-2.812-.308.692.692,0,0,0-.488-.04c-.563.15-1.131.29-1.7.427a.509.509,0,0,1-.643-.409.837.837,0,0,1,.04-.343c.158-.5.334-1,.493-1.5a.438.438,0,0,0-.022-.29,4.74,4.74,0,1,1,8.656-3.82,10.762,10.762,0,0,1,.277,1.14c.013.048.022.1.031.15C202.875,4.622,202.875,4.856,202.875,5.093Zm-3.164-1.316a1.581,1.581,0,1,0-3.16-.11.527.527,0,0,0,1.047.1c.009-.044,0-.092.013-.141a.537.537,0,0,1,.519-.462.524.524,0,0,1,.519.436.568.568,0,0,1-.334.6,1.473,1.473,0,0,0-.709,1.294.529.529,0,0,0,.506.546.518.518,0,0,0,.537-.493.623.623,0,0,1,.334-.532A1.512,1.512,0,0,0,199.711,3.777Zm-1.052,3.067a.526.526,0,1,0-.519.532A.535.535,0,0,0,198.659,6.845Z" transform="translate(-184.892 0)" fill="#014e89"/><path d="M.38,265.592a.67.67,0,0,1-.392-.709c.018-.62.009-1.241,0-1.862a4.742,4.742,0,0,1,1.54-3.617c.145-.136.3-.251.471-.387A3.731,3.731,0,0,0,7.553,259c.277.264.577.5.823.783A4.691,4.691,0,0,1,9.551,263c-.009.625-.013,1.254,0,1.879a.67.67,0,0,1-.392.709Q4.774,265.595.38,265.592Z" transform="translate(0 -247.595)" fill="#014e89"/><path d="M50.671,148.972a2.636,2.636,0,1,1,2.671-2.632A2.676,2.676,0,0,1,50.671,148.972Z" transform="translate(-45.899 -137.374)" fill="#014e89"/></g></svg>