<svg id="Layer_1" data-name="Layer 1" xmlns="http://www.w3.org/2000/svg" viewBox="0 0 512 512"><defs><style>.cls-1{fill:#fff;}</style></defs><path class="cls-1" d="M496.17,261.56H100.08c-10.16,0-16.91-4.63-19.16-13.07a17.33,17.33,0,0,1,15.32-21.73c1.5-.12,3-.12,4.51-.12h69.89V223c0-16.13,0-32.26,0-48.38,0-9.38,6.21-16.57,15.4-17.77a23.47,23.47,0,0,1,5.33.35q52.91,5.29,105.79,10.61,43.77,4.37,87.57,8.64,41.83,4.15,83.67,8.39c13,1.34,24,10.15,26.94,21.54a26.62,26.62,0,0,1,.9,6.52c.1,15.43.09,30.85.1,46.28C496.35,259.87,496.25,260.54,496.17,261.56Z"/><path class="cls-1" d="M495.67,290.65V402.09h-39.3V328H54.86v74.21H15.65v-271c0-11.68,6.65-19.74,17.44-21.23,10.27-1.42,20.45,6.51,21.55,16.82a48.2,48.2,0,0,1,.18,5.1q0,77.23,0,154.47v4.28Z"/><path class="cls-1" d="M150.47,173.08a35.43,35.43,0,1,1-70.85-1c.44-19.88,16.45-35.11,36.52-34.73C135.18,137.69,150.8,154,150.47,173.08Z"/></svg>