<svg id="Layer_1" data-name="Layer 1" xmlns="http://www.w3.org/2000/svg" viewBox="0 0 512 512"><defs><style>.cls-1{fill:#fff;}</style></defs><path class="cls-1" d="M37.33,269c-7,0-12.68.08-18.38,0C8,268.81,2.85,262.18,6.12,251.67c2.37-7.57,5-15.27,8.82-22.13,4.49-7.95,12.18-11.81,21.58-11.67,5.12.07,10.26-.11,15.38.06,2.65.09,4-.79,5-3.35q9.74-26.49,19.77-52.88c5.1-13.36,10.3-26.68,15.7-39.92,4.4-10.78,12.49-18.32,22.44-23.94C136.44,85.6,160,80,184.65,78.09c5.55-.43,11.09-1.13,16.66-1.42,3.14-.17,4.12-1.57,4.07-4.53a107.93,107.93,0,0,1,.35-13.1c1-9.68,7.88-16,17.5-16q32.8-.14,65.61,0c9.69.05,16.57,6.31,17.61,15.93a64.86,64.86,0,0,1,.22,11.74c-.32,4.24,1.18,5.69,5.46,6.07,12.61,1.12,25.24,2.29,37.72,4.31,16.86,2.74,33.14,7.69,48.08,16.28a48.26,48.26,0,0,1,21.78,25.52c10.33,27.33,21,54.55,31.48,81.81,1.24,3.23,2.71,6.4,3.63,9.72.81,3,2.49,3.62,5.27,3.52,4.82-.18,9.65-.05,14.48,0,12.64,0,21.84,6.27,26.34,18.14,1.92,5.06,3.6,10.24,5,15.46,3,11-1.82,17.36-13.12,17.49-5.56.06-11.11,0-17.35,0a41.55,41.55,0,0,0,1.67,5.52c4.36,9.44,4.81,19.55,4.87,29.65.14,27.6.05,55.2,0,82.79,0,7.16,0,7.22-7.06,7.22-29.4,0-58.81.09-88.22-.1-4,0-5.34,1-5.09,5,.31,5,.19,9.95,0,14.92-.08,2.83.78,4.08,3.82,4.07,25.64-.09,51.28,0,76.91-.12,8.21,0,14-4.06,17.26-11.61a11.94,11.94,0,0,1,.89-1.55c.07-.1.28-.1.8-.26a13.39,13.39,0,0,1,.61,2.77c0,14,.37,28.06-.2,42.06-.18,4.53-2.09,9.36-4.42,13.33-2.54,4.3-7.31,6.22-12.43,6.24-22.32.06-44.64.15-67,0a17.6,17.6,0,0,1-17.23-17.48c-.2-8.89-.06-17.79-.07-26.69v-5.24H131.27c0,10.41.26,20.63-.13,30.82a24.54,24.54,0,0,1-3,10.61c-3,5.35-8.07,8-14.28,8-22.17,0-44.34.08-66.51-.05-8.08,0-16.24-6.14-16.56-13.92-.69-16.93-.21-33.91-.21-51.8,1,1.76,1.59,2.84,2.14,4C36.27,414.4,42.13,418,50.09,418c12.37.07,24.74,0,37.1,0,12.82,0,25.64-.07,38.45.07,3.45,0,4.94-1,4.74-4.62a107.37,107.37,0,0,1,0-14c.32-4.31-1.43-5.37-5.45-5.36-29.25.12-58.51.06-87.77.06-7.13,0-7.17,0-7.17-7.19q0-41.85,0-83.7C30,291.78,31.62,280.55,37.33,269Zm55.51-44.12c77.15,19.1,153.89,20.5,231,15.28,31.61-2.14,63.07-6.34,94.34-15.61-3.77-12.58-6.89-24.69-11-36.43-5-14.18-11-28-16.41-42.06-3.17-8.28-6.21-16.57-15.8-19.5-8-2.45-16.06-5.22-24.29-6.85-24.79-4.9-50-6.07-75.13-6.25-26.82-.19-53.7.23-80.45,1.91-16.59,1-33.09,4.42-49.44,7.7-10.71,2.14-19.25,7.66-23.08,19.21-3.07,9.25-8.24,17.78-11.47,27C104.73,187.27,99.13,205.52,92.84,224.88ZM113,344.52l0-.5c7.24,0,14.48.14,21.71-.06a53,53,0,0,0,11.17-1.37c4.51-1.12,8.4-3.42,9.58-8.52,1.25-5.4.35-10.24-4.07-13.92a33.33,33.33,0,0,0-7.05-4.84c-11.73-5.47-23.44-11-35.41-15.93-12.38-5.06-24.75-10.52-38.77-8.93-8,.91-12.63,4.59-13.29,12.69a152.57,152.57,0,0,0-.24,24.37c.25,3.09,2.73,7.28,5.38,8.65,5.91,3,12.42,5.66,18.95,6.54C91.5,344.12,102.27,344,113,344.52Zm286.39-.79v0c7.84,0,15.73.56,23.5-.16a120.26,120.26,0,0,0,22-4.29c5.09-1.46,10.22-4.53,10.5-10.58a236,236,0,0,0-.47-27.51,11.09,11.09,0,0,0-10.45-10.27c-6.25-.38-12.87-.79-18.8.82-20.69,5.6-40.14,14.57-59.21,24.25-8.43,4.29-11.45,10.35-9.95,17.38,1.31,6.1,6.31,9.78,15.73,10.28C381.25,344.11,390.31,343.73,399.35,343.73ZM305.6,92.54a97.94,97.94,0,0,1,.07-10.18c.45-4.23-1.26-5.41-5.29-5.39-27.7.07-55.4-.12-83.1,0-10.92,0-10.76.22-10.9,11.2,0,3.82,1.21,4.8,4.9,4.79,29.82-.14,59.63-.08,89.45-.09C302.19,92.81,303.66,92.65,305.6,92.54ZM472.86,267.11a10.77,10.77,0,0,0-.33-1.86c-5-13.39-10-26.81-15.16-40.13-2.68-6.89-4.36-7.49-12.17-5.26.37,1.4.65,2.84,1.12,4.22q6,17.53,12,35c3.37,9.79,3.41,9.81,13.69,8.43C472.16,267.55,472.29,267.43,472.86,267.11Z"/></svg>