<?xml version="1.0" encoding="UTF-8"?><svg id="a" xmlns="http://www.w3.org/2000/svg" viewBox="0 0 25 20"><defs><style>.b{fill:#cc2131;}.b,.c{fill-rule:evenodd;}.c{fill:#1a3b73;}</style></defs><path class="b" d="M3.17,19.57H.36L4.91,6.8h3.08l4.5,12.77h-2.9l-.82-2.63H4.06l-.89,2.63h0Zm1.6-4.84h3.26l-1.58-5.05h-.04l-1.64,5.05Z"/><path class="c" d="M15.32,19.57h-2.81l4.55-12.77h3.08l4.5,12.77h-2.9l-.82-2.63h-4.71l-.89,2.63h0Zm1.6-4.84h3.26l-1.58-5.05h-.04l-1.64,5.05Zm-2.87-5.78l-1.26-3.87,.37-1.02,.2,.13c-.07-.16-.13-.34-.1-.43l.23-.6,.19,.11c-.07-.17-.11-.3-.09-.39l.2-.57,.2,.11c-.09-.17-.13-.36-.1-.44l.59-1.57,1.06,3.23c.16,.5,.17,.67,.01,1.13l-1.5,4.17h0Zm.39,2.26c.04,.13,.06,.37-.09,.46-.11,.09-.26,.04-.26,.04,0,0,.1-.17,.03-.26l-.9-1.04h-.34l-.31,.81,.14,.24,.34,.1s.1,.03,.11,.13c0,.09-.09,.14-.09,.14,0,0,.01-.1-.03-.1h-.64s-.06,.11-.06,.11c0,0-.1-.09-.1-.19,0-.06,.15-.2,.15-.2l-.17-.2-.28-.03-1.11-3.33h.23c-.14-.1-.29-.16-.31-.27l-.27-.86h.21c-.16-.11-.27-.17-.31-.27l-.24-.86,.2-.03c-.16-.09-.3-.19-.33-.29,0,0-.07-.17-.11-.43-.03-.04-.07-.41-.07-.41l.26-.03c-.13-.09-.26-.1-.26-.26-.01-.39,.16-.79,.26-1.07l.19,.13c-.06-.16-.09-.33-.07-.41l.3-.81,.19,.11c-.06-.17-.1-.34-.07-.41l.49-1.31,3.41,10.48c.03,.13-.07,.3-.07,.3h0Zm-3.31-.66l-.04-.16c-.06,.07-.1,.16-.14,.16h-.46l-.04-.16c-.06,.07-.1,.16-.13,.16h-.47l1.15-1.63,.57,1.65h-.43Z"/></svg>