<?xml version="1.0" encoding="UTF-8"?><svg id="a" xmlns="http://www.w3.org/2000/svg" xmlns:xlink="http://www.w3.org/1999/xlink" viewBox="0 0 25 20"><defs><style>.c{fill:#df002b;}.d{clip-path:url(#b);}.e{fill:none;}.f{fill:#f39700;}</style><clipPath id="b"><path class="e" d="M14.45,7.62l-5.06,3.64s-1.85,1.93-9.02,1.55H.38c.41,.07,2.34,.37,4.09,.78,1.05,.25,2.38,.76,2.96,1.1,.4,.23,.82,.49,1.16,.73,.64,.44,1.92,1.71,2.73,2.16,1.05,.57,2.86,1.09,5.64,.53,0,0-3.41,.08-4.86-1.17-.27-.23-1.15-1.19,.22-1.96,.49-.31,1.25-.5,2.63-.73,0,0,3.88-.4,4.93-.19,0,0-.6-.24-.98-.67-.52-.52,0-1.42,0-1.42L24.7,1.67l-2.81-.02-7.44,5.97Z"/></clipPath></defs><path class="c" d="M18.89,11.98L24.7,1.67l-2.81-.02-7.44,5.97-5.06,3.64s-1.87,1.94-9.09,1.55c0,0,2.2,.32,4.17,.78,1.05,.25,2.38,.76,2.96,1.1,.4,.23,.82,.49,1.16,.73,.64,.44,1.91,1.71,2.73,2.15,1.05,.57,2.86,1.09,5.64,.53,0,0-3.41,.08-4.86-1.17-.27-.23-1.15-1.19,.22-1.96,.5-.31,1.25-.5,2.63-.73,0,0,3.88-.4,4.93-.19,0,0-.6-.24-.98-.67-.52-.52,0-1.42,0-1.42"/><g class="d"><path class="f" d="M17.82,7.74c.33-.04,1.68-.28,1.82-.3,.68-.13,1.42-.29,2.05-.43l.07-.13c-.94,.07-2.07,.16-2.89,.23-.55,.05-.97,.09-1.11,.11-.18,.03-.36,.06-.53,.09-.63,.12-1.22,.27-1.77,.45,.57,.08,2,.03,2.35-.01"/><path class="f" d="M17.74,8.73c.33,.05,1.69,.17,1.84,.18,.33,.02,.67,.04,1,.06l.14-.25c-.64-.12-1.28-.24-1.8-.33-.54-.1-.96-.17-1.1-.18-.18-.02-.36-.03-.53-.05-.64-.04-1.25-.05-1.82-.03,.53,.23,1.92,.55,2.27,.59"/><path class="f" d="M17.41,9.67c.31,.13,1.59,.6,1.73,.65,.19,.06,.38,.13,.57,.19l.16-.28c-.44-.21-.87-.41-1.23-.58-.5-.24-.88-.41-1.01-.46-.17-.06-.34-.12-.5-.18-.61-.21-1.2-.37-1.75-.5,.46,.36,1.72,1.03,2.04,1.16"/><path class="f" d="M16.85,10.49c.26,.21,1.38,.99,1.5,1.07,.18,.12,.37,.25,.56,.37l.16-.28c-.37-.31-.72-.61-1.03-.87-.42-.36-.75-.62-.86-.71-.15-.11-.29-.21-.44-.31-.53-.36-1.06-.67-1.56-.93,.35,.47,1.39,1.44,1.67,1.65"/><path class="f" d="M16.09,11.14c.2,.27,1.08,1.32,1.17,1.43,.42,.48,.88,.99,1.29,1.44,.06,0,.12,0,.18,0-.51-.75-1.11-1.62-1.56-2.27-.32-.45-.56-.8-.65-.9-.11-.14-.23-.28-.35-.41-.42-.48-.85-.92-1.27-1.31,.22,.54,.98,1.75,1.19,2.03"/><path class="f" d="M15.2,11.57c.13,.31,.7,1.55,.76,1.68,.14,.29,.29,.58,.44,.87,.09,0,.19-.01,.28-.02-.21-.6-.42-1.19-.6-1.68-.19-.52-.33-.91-.39-1.04-.07-.17-.15-.33-.23-.49-.28-.58-.58-1.11-.89-1.59,.07,.58,.49,1.94,.62,2.26"/><path class="f" d="M14.22,11.75c.04,.33,.28,1.68,.3,1.82,.05,.24,.1,.48,.15,.72,.09-.02,.18-.03,.27-.05h.03c-.04-.52-.08-1.02-.12-1.45-.05-.55-.09-.97-.11-1.11-.03-.18-.06-.35-.09-.53-.12-.63-.27-1.22-.45-1.77-.08,.57-.03,2,.01,2.35"/><path class="f" d="M13.23,11.68c-.05,.33-.17,1.69-.18,1.84-.03,.38-.05,.78-.07,1.16,.08-.03,.17-.05,.27-.08,.12-.62,.23-1.23,.32-1.74,.1-.54,.17-.96,.18-1.1,.02-.18,.03-.36,.05-.53,.04-.64,.05-1.25,.03-1.82-.23,.53-.55,1.92-.59,2.27"/><path class="f" d="M12.29,11.35c-.13,.31-.6,1.59-.65,1.73-.36,1.05-.73,2.26-.98,2.96,.44-.91,1.17-2.43,1.65-3.46,.24-.5,.41-.88,.46-1.01,.06-.17,.12-.34,.18-.5,.21-.61,.37-1.2,.5-1.75-.36,.46-1.02,1.72-1.16,2.04"/><path class="f" d="M11.47,10.79c-.21,.26-.99,1.38-1.08,1.5-.62,.92-1.29,1.99-1.71,2.6,.66-.76,1.76-2.05,2.49-2.91,.36-.42,.62-.75,.71-.86,.11-.15,.21-.3,.31-.44,.36-.53,.67-1.06,.93-1.56-.47,.35-1.43,1.39-1.65,1.67"/><path class="f" d="M9,11.55c-.72,.64-1.46,1.32-1.94,1.73,.83-.56,2.23-1.52,3.16-2.17,.46-.32,.8-.56,.9-.65,.14-.11,.28-.23,.41-.35,.48-.42,.92-.85,1.31-1.27-.08,.03-.17,.07-.27,.12l-3.18,2.29s-.11,.12-.39,.29"/><path class="f" d="M17.17,5.81c.26-.21,1.3-1.1,1.41-1.2,.82-.74,1.73-1.62,2.3-2.11l-.35,.25-5.31,4.26c.56-.25,1.69-.99,1.95-1.2"/><path class="f" d="M17.63,6.76c.31-.13,1.55-.7,1.68-.76,.99-.49,2.11-1.08,2.79-1.4-.95,.33-2.55,.89-3.61,1.28-.52,.19-.91,.34-1.04,.39-.17,.07-.33,.15-.49,.23-.58,.28-1.11,.58-1.59,.89,.58-.07,1.94-.49,2.26-.62"/></g></svg>