<?xml version="1.0" encoding="UTF-8"?><svg id="a" xmlns="http://www.w3.org/2000/svg" viewBox="0 0 25 20"><defs><style>.b{fill:#e82c2a;}</style></defs><path class="b" d="M12.83,13.91c0-.59,.3-.7,.88-.38,1.05,.59,2.15,1.2,2.15,1.2,.03-.33,.32-.61,.96-.48,.59,.14,1.24,.29,1.24,.29,0,0-.35-.8-.51-1.15-.29-.64-.02-.96,.27-1.04,0,0-.4-.27-.67-.45-.56-.4-.43-.78,.11-1.02,.75-.32,1.69-.73,1.69-.73-.3-.18-.65-.65-.26-1.23,.38-.56,.96-1.34,.96-1.34h-1.69c-.62-.02-.77-.49-.77-.85,0,0-1,.7-1.72,1.2-.61,.4-1.15,.02-1.05-.69,.14-1.08,.27-2.3,.27-2.3-.37,.26-1,.24-1.29-.37-.41-.91-.91-1.96-.91-1.96,0,0-.48,1.05-.89,1.96-.27,.61-.92,.62-1.29,.37,0,0,.13,1.21,.27,2.3,.1,.7-.46,1.08-1.05,.69-.72-.48-1.72-1.2-1.72-1.2,0,.35-.14,.85-.75,.85h-1.69s.57,.78,.97,1.34c.38,.56,.03,1.05-.26,1.23,0,0,.92,.41,1.67,.73,.56,.24,.69,.62,.11,1.02-.26,.19-.67,.45-.67,.45,.29,.1,.56,.4,.27,1.04-.16,.35-.51,1.15-.51,1.15,0,0,.65-.14,1.24-.29,.62-.14,.92,.14,.96,.48,0,0,1.08-.61,2.14-1.2,.57-.32,.88-.21,.88,.38v1.47c0,.85-.16,1.77-.48,2.26-4.03-.45-7.37-3.67-7.37-7.91S7.99,1.8,12.5,1.8s8.16,3.56,8.16,7.93c0,4.1-3.17,7.43-7.26,7.88v1.07c4.78-.43,8.53-4.27,8.53-8.95C21.94,4.77,17.71,.73,12.5,.73S3.06,4.75,3.06,9.73c0,4.37,3.27,8.01,7.62,8.82,.73,.14,1.2,.26,1.58,.72,.46-.85,.57-2.65,.57-3.67v-1.69Z"/></svg>