<?xml version="1.0" encoding="UTF-8"?><svg id="a" xmlns="http://www.w3.org/2000/svg" viewBox="0 0 25 20"><defs><style>.b{fill:#01426a;}</style></defs><path class="b" d="M3.31,14.73h-.77l-.15,.44h-.39l.71-1.89h.41l.71,1.89h-.39l-.15-.44Zm-.65-.36h.53l-.27-.71-.26,.71Z"/><path class="b" d="M5.17,15.14v-1.89h.39v1.89h-.39Z"/><path class="b" d="M7.69,14.43h-.18v.74h-.36v-1.89h.74c.36,0,.59,.27,.59,.59,0,.27-.15,.47-.41,.53l.41,.77h-.41l-.38-.74Zm.08-.32c.18,0,.3-.12,.3-.27s-.12-.27-.3-.27h-.3v.53h.3Z"/><path class="b" d="M9.94,15.14v-1.89h.36v1.54h.83v.36h-1.18Z"/><path class="b" d="M12.6,15.14v-1.89h.39v1.89h-.39Z"/><path class="b" d="M15.76,15.14l-.86-1.33v1.33h-.36v-1.89h.44l.77,1.24v-1.24h.36v1.89h-.35Z"/><path class="b" d="M17.75,15.14v-1.89h1.18v.36h-.8v.44h.74v.32h-.74v.44h.8v.36h-1.18v-.03Z"/><path class="b" d="M21.39,13.81c-.03-.12-.12-.27-.36-.27-.18,0-.3,.12-.3,.23s.06,.18,.21,.21l.27,.06c.36,.06,.53,.3,.53,.56,0,.3-.23,.59-.68,.59-.5,0-.71-.32-.74-.59l.32-.09c.03,.18,.15,.36,.41,.36,.21,0,.3-.09,.3-.23,0-.12-.09-.21-.23-.23l-.27-.06c-.3-.06-.5-.27-.5-.53,0-.32,.3-.59,.65-.59,.44,0,.62,.27,.68,.5l-.3,.08Z"/><path class="b" d="M12.04,5.14l-2.72,4.58c-.3,.47-.44,.95-.47,1.42h-1.07c.06-.59,.3-1.12,.77-1.92l1.92-3.19c.36-.68,.74-.89,1.42-.89h.16Z"/><path class="b" d="M11.83,9.97c-.21,.18-.59,.47-.92,.47-.23,0-.23-.21-.09-.5,.59-1.09,1.18-1.69,1.92-1.69h.15l-1.06,1.71Zm1.01-2.37c-1.39,0-2.25,.8-2.99,2.57-.18,.44-.3,1.01,.36,.98,.36,0,.98-.21,1.42-.5-.03,.15-.06,.36-.03,.47h.98c.03-.39,.18-.86,.5-1.42l1.21-2.04c-.51-.03-.98-.06-1.45-.06Z"/><path class="b" d="M21.83,9.97c-.21,.18-.59,.47-.92,.47-.23,0-.23-.21-.09-.5,.59-1.09,1.18-1.69,1.92-1.69h.15l-1.06,1.71Zm1.01-2.37c-1.39,0-2.25,.8-2.99,2.57-.18,.44-.3,1.01,.36,.98,.36,0,.98-.21,1.42-.5-.03,.15-.06,.36-.03,.47h.98c.03-.39,.18-.86,.5-1.42l1.18-2.01c-.47-.07-.95-.09-1.42-.09Z"/><path class="b" d="M19.67,12.12h-.32c-.41,0-.77-.27-.89-.68l-.47-1.84-.92,1.51h-1.03l2.9-4.91c.39-.62,.77-.86,1.45-.86h.12l-1.92,3.26,1.45-1.01h1.16l-2.43,1.7,.92,2.84Z"/><path class="b" d="M10.14,4.85c-.98,0-1.48,.27-2.43,.95l-3.26,2.34H2.36c-.59,0-1.09,.03-1.45,.39l-.53,.5s1.57-.06,3.02-.12L.3,11.12H1.63l3.17-2.28c.62-.03,1.03-.03,1.03-.03,.74-.03,1.16-.68,1.16-.68h-1.21l2.57-1.86-1.89,3.08c-.41,.71-.59,1.21-.68,1.75h1.09c.03-.47,.21-.95,.47-1.42l2.6-4.35c.18-.3,.32-.53,.32-.53l-.12,.05Z"/><path class="b" d="M15.29,8.6c0,.09,.03,.15,.21,.27l.3,.21c.32,.21,.44,.53,.41,.8-.12,.74-.65,1.3-1.78,1.3-.5,0-.71-.03-1.3-.12l.44-.74c.41,.06,.65,.12,.95,.12,.41,0,.59-.21,.62-.36,0-.09-.03-.21-.23-.36l-.23-.18c-.39-.27-.47-.47-.41-.83,.09-.65,.83-1.12,1.86-1.12,.32,0,.68,.03,1.07,.06l-.41,.71c-.27-.03-.68-.03-.95-.03-.3,0-.51,.11-.54,.26Z"/><path class="b" d="M24.17,10.08c.3,0,.53,.23,.53,.56,0,.3-.23,.56-.53,.56s-.53-.23-.53-.56c0-.3,.23-.56,.53-.56Zm0,1.01c.23,0,.41-.18,.41-.44,0-.23-.18-.44-.41-.44s-.41,.18-.41,.44c0,.23,.17,.44,.41,.44Zm-.06-.15h-.12v-.59h.21c.12,0,.21,.09,.21,.18s-.06,.15-.12,.18l.15,.23h-.18l-.12-.23h-.06v.23h.03Zm.06-.32c.06,0,.12-.03,.12-.09s-.03-.09-.12-.09h-.09v.18h.09Z"/></svg>