<?xml version="1.0" encoding="UTF-8"?><svg id="a" xmlns="http://www.w3.org/2000/svg" xmlns:xlink="http://www.w3.org/1999/xlink" viewBox="0 0 25 20"><defs><style>.c{fill:url(#b);}.d{fill:#ce210f;}</style><linearGradient id="b" x1="22.03" y1="354.37" x2="18.99" y2="359.64" gradientTransform="translate(0 -346)" gradientUnits="userSpaceOnUse"><stop offset="0" stop-color="#e6ebef"/><stop offset=".08" stop-color="#bbcee5"/><stop offset=".19" stop-color="#85a9d8"/><stop offset=".28" stop-color="#5d8fcf"/><stop offset=".35" stop-color="#457ec9"/><stop offset=".4" stop-color="#3c78c7"/><stop offset=".9" stop-color="#2e5c99"/></linearGradient></defs><path class="c" d="M22.89,9.19c-.68,.67-2.16,1.26-2.89,1.53-.99,.38-1.43,.51-1.98,.68-.62,.21-1.88,.59-1.88,.59,2.61,.77,4.44,1.01,4.44,1.01,0,0,.85-.27,2.21-.99,.73-.38,1.09-.62,1.35-.86,.1-.09,.34-.34,.41-.66,0-.02,.02-.09,.02-.15v-.08s0-.07,0-.07c0,0,0-.08-.03-.13s-.1-.22-.24-.33c-.09-.07-.25-.26-.81-.46-.19-.07-.51-.13-.51-.13l-.08,.05Z"/><path class="d" d="M24.56,10.32s0-.07-.02-.13c0-.06-.04-.11-.08-.16-.04-.07-.11-.14-.19-.23-.07-.06-.14-.12-.23-.18-.36-.23-.81-.37-1.22-.42-.62-.08-1.35-.07-1.42-.07-.23,0-1.74,0-2.11,.02-1.72,.04-3.81,.04-4.35,.04-5.66,.03-8.13-.1-10.88-.64-2.33-.47-3.63-.9-3.63-.9,2.06-.07,14.07-.57,16.26-.62,1.44-.04,2.45-.05,3.27,0,.42,.02,.8,.06,1.3,.14,.44,.08,.83,.2,1.07,.29,.49,.18,.9,.45,1.1,.71,0,0,.06,.06,.14,.17,.09,.13,.2,.29,.24,.35,.3,.45,.44,.73,.49,.83s.1,.21,.15,.32c.04,.11,.06,.17,.08,.21,.03,.11,.04,.21,.04,.24v.04Z"/></svg>