<?xml version="1.0" encoding="UTF-8"?><svg id="a" xmlns="http://www.w3.org/2000/svg" viewBox="0 0 25 20"><defs><style>.b{fill:#006b6e;}</style></defs><path class="b" d="M10.44,9.23c-.08,0-.15-.08-.15-.11,0,0-.04-.08-.04-.11,0,0,.08,0,.11,.04,0,.04,.04,.08,.08,.19h0m-1.56-.84s-.15-.11-.19-.15c-.04-.08-.11-.19-.15-.27-.04-.08-.11-.11-.11-.27v-.04c.08,0,.11,.11,.15,.15,.04,.04,.04,.08,.08,.08,.04,.04,.04,.11,.08,.15,.04,.04,.08,.11,.11,.15l.08,.08s-.04,.08-.04,.11m-.46-.04s-.04-.04-.08-.04c-.04-.04-.11-.11-.11-.19h0c.08,0,.11,.11,.15,.15,.04,0,.08,.04,.04,.08,.04,0,0,0,0,0m-1.48,.3h0c-.08,0-.11-.08-.15-.15-.04-.04-.04-.08-.08-.11,0-.04-.04-.04-.04-.08-.04-.04-.04-.08-.04-.11s-.04-.04-.04-.04c-.04-.04-.08-.11-.11-.15v-.08s-.04-.08-.04-.11v-.08h0s.11,.15,.11,.19c.04,.04,.08,.08,.11,.15,.04,.04,.04,.11,.04,.15,.04,.04,.04,.08,.08,.11,.04,.04,.04,.11,.08,.15,.04,.04,.08,.11,.08,.15,0-.08,.04-.04,0,0m-.27-2.02s-.04-.04-.04-.08,0-.04-.04-.08c-.04-.08-.08-.19-.11-.27,0-.04-.04-.11-.04-.15h.04l.04,.04s0,.04,.04,.04c.04,.04,.04,.08,.08,.11,.04,.08,.04,.15,.08,.23,.04,.04,.08,.08,.08,.15,0,.04,.04,.04,.04,.08v.11c-.11-.08-.11-.15-.15-.19m14.04,6.2c-.08-.3-.95-.15-1.67-.23-.65-.08-1.52-.19-2.51-.53-.95-.34-1.86-.72-2.66-1.14,0,0-.34-.15-.34-.19-.08-.04-.11-.08-.19-.11-.04-.04-.11-.08-.15-.08-.04-.04-.08-.04-.15-.08-.04-.04-.11-.08-.15-.08-.08-.04-.11-.08-.19-.11-.04-.04-.08-.04-.11-.08-.04-.04-.11-.04-.11-.08-.08-.04-.11-.08-.15-.11-.04-.04-.08-.04-.11-.08-.04-.04-.08-.08-.11-.08s-.04-.04-.08-.08-.08-.08-.15-.11l-.11-.11s-.08-.08-.11-.08c-.08-.04-.11-.08-.19-.15l-.11-.11s-.11-.08-.15-.11c-.04-.04-.08-.04-.11-.08l-.11-.11s-.08-.08-.11-.08l-.15-.15-.08-.08s-.04-.04-.04-.08l-.04-.04-.08-.08s-.04-.04-.04-.08-.04-.04-.04-.08l-.08-.08-.08-.08-.04-.04-.04-.04s-.04,0-.04,0v.08s.04,.08,.08,.11h0s0,.04,.04,.04l.04,.04s.04,.08,.08,.11l.04,.04s.04,.04,.04,.08,.04,.04,.04,.08c0,0,0,.04,.04,.04,0,0,0,.04,.04,.04l.04,.04,.08,.08s.04,.04,.08,.08c.04,.08,.11,.11,.15,.19,.04,.04,.08,.08,.11,.08,.04,.04,.08,.08,.08,.11l.08,.08c.04,.08,.08,.11,.15,.15l.11,.11,.11,.11c.08,.08,.08,.15,.08,.15-.04,0-.15-.08-.19-.11s-.04-.04-.11-.08c0,0-.08-.08-.11-.08s-.08-.08-.08-.08c-.08-.11-.11-.11-.19-.19s-.15-.11-.23-.19l-.08-.08-.08-.08s-.08-.11-.11-.15c-.04-.04-.08-.04-.11-.08l-.04-.04s-.04-.04-.04-.04c-.04-.08-.08-.11-.15-.19l-.08-.08c-.04-.08-.08-.11-.11-.19l-.23-.23c-.08-.08-.11-.19-.15-.27-.04-.04-.08-.08-.08-.11s-.04-.04-.04-.08c-.04-.04-.08-.08-.11-.15-.04-.08-.08-.11-.11-.19,0,0-.04-.04-.04-.08-.04-.04-.04-.08-.08-.11-.04-.04-.04-.08-.08-.11-.04-.04-.04-.08-.04-.08,0-.04-.04-.08-.04-.08l-.08-.15s-.04-.08-.08-.04v.04s0,.04,.04,.08c.04,.04,.04,.08,.08,.15,0,.04,.04,.08,.08,.11,.04,.04,.04,.08,.08,.11,0,.04,.04,.11,.08,.11,0,.04,.04,.08,.04,.11,.04,.08,.08,.11,.11,.15,.04,.04,.04,.08,.08,.11,.04,.08,.11,.11,.15,.19,.04,.04,.04,.11,.08,.15,.04,.04,.08,.08,.08,.11,.04,.04,.04,.11,.08,.15,.04,.04,.04,.08,.08,.11,.04,.08,.08,.11,.11,.19l.08,.08s.08,.11,.11,.15c.04,.04,.04,.08,.08,.11,.04,.08,.19,.23,.15,.23-.08,0-.23-.15-.27-.19s-.11-.08-.11-.11c-.04-.08-.08-.11-.11-.19,0-.04-.04-.04-.08-.08l-.11-.11-.04-.04c-.04-.08-.11-.15-.15-.23-.04-.04-.04-.08-.08-.08,0-.04-.04-.04-.04-.08-.04-.04-.04-.08-.08-.11,0-.04-.04-.04-.04-.08l-.11-.11s-.04-.08-.04-.11c-.08-.08-.11-.19-.19-.27,0-.04-.04-.04-.04-.08-.04-.08-.11-.15-.15-.23,0-.04-.04-.08-.04-.08-.04-.04-.04-.08-.08-.08,0-.04-.04-.04-.04-.08s-.04-.08-.08-.11c0-.04-.04-.04-.04-.08-.08-.08-.11-.19-.15-.3-.04-.04-.08-.11-.08-.15-.04-.08-.04-.11-.08-.19,0-.04-.04-.08-.04-.11-.04-.08-.08-.11-.11-.19-.04-.04-.04-.08-.04-.11s-.04-.04-.04-.04v.08c0,.08,.04,.15,.08,.19,.04,.08,.04,.15,.08,.23,0,.04,.04,.08,.08,.11,.04,.08,.08,.15,.11,.19,0,.04,.04,.08,.04,.11s.04,.04,.04,.08c.04,.04,.04,.11,.04,.15,.04,.04,.08,.08,.08,.11l.34,.69c.04,.08,.04,.11,.08,.19,.04,.08,.08,.11,.11,.15,.04,.04,.04,.11,.08,.19,.04,.08,.11,.15,.15,.23t.04,.08s.04,.04,.08,.08c.04,.04,.04,.08,.08,.11l.11,.11s.08,.11,.11,.15l.08,.08s.19,.23,.23,.3c.08,.08,.19,.19,.23,.3,0,.04,.08,.11,.08,.11-.04,.04-.15-.15-.19-.15-.08-.04-.11-.15-.15-.19l-.15-.15-.04-.04s-.08-.11-.11-.19c0-.04-.04-.04-.08-.08s-.04-.08-.08-.11c-.04-.08-.11-.11-.15-.19-.04-.08-.08-.15-.15-.23-.04-.04-.08-.08-.08-.11,0,0,0-.04-.04-.04-.04-.04-.04-.08-.08-.08,0-.04-.04-.08-.04-.08-.04-.08-.11-.19-.15-.27-.04-.04-.04-.08-.08-.11-.04-.08-.08-.11-.15-.19l-.11-.23s-.08-.11-.11-.15c-.04-.04-.04-.11-.08-.19-.04-.04-.08-.11-.08-.15-.04-.04-.04-.11-.08-.15,0-.04-.04-.08-.04-.08,0-.04-.04-.08-.04-.11-.04-.11-.11-.19-.15-.3l-.11-.23s-.04-.08-.04-.11c-.04-.11-.11-.19-.15-.3,0-.04-.04-.11-.04-.15v-.04s-.04-.08-.08-.15c0-.04-.04-.11-.04-.15-.08-.15-.11-.38-.19-.53,0-.04,0-.08-.04-.11-.04-.08-.08-.19-.11-.27-.04-.04-.08-.04-.04,0,0,.08,.04,.08,.04,.11v.08s.04,.08,.04,.08c0,.04,.04,.11,.04,.15,.04,.08,.04,.15,.08,.23,0,.04,0,.08,.04,.11,0,.04,.04,.08,.04,.11,.04,.08,.08,.19,.11,.27,0,.04,.04,.11,.04,.15s.04,.08,.04,.08t.04,.08c.04,.08,.04,.11,.08,.19,.04,.04,.04,.11,.08,.15v.08c.04,.15,.11,.3,.19,.46,0,.04,.04,.08,.04,.11s.04,.08,.04,.11,0,.04,.04,.08c.04,.04,.04,.08,.08,.11,.08,.11,.11,.23,.19,.34,.08,.11,.11,.23,.15,.34,.04,.04,.04,.11,.08,.15,0,.04,.04,.04,.04,.08,.04,.08,.04,.11,.08,.15t.04,.11l.04,.11-.08-.04s-.08-.08-.08-.11-.04-.08-.04-.11c-.04-.08-.11-.15-.15-.19-.04-.04-.04-.08-.08-.11l-.11-.23s-.04-.08-.08-.11c-.04-.04-.04-.08-.04-.11l-.11-.23s-.04-.11-.08-.15l-.04-.04s-.04-.08-.04-.08c-.04-.04-.04-.08-.08-.11-.04-.08-.08-.19-.11-.27-.04-.04-.04-.08-.08-.11-.04-.08-.04-.15-.08-.19-.08-.15-.15-.34-.23-.53,0-.04,0-.08-.04-.11-.04-.08-.08-.15-.08-.23,0-.04,0-.08-.04-.11,0-.04-.04-.11-.08-.15v-.04s-.04-.11-.08-.15c0-.04-.04-.04-.04-.08s0-.11-.04-.15c-.04-.08-.04-.15-.08-.23,0-.04,0-.08-.04-.11,0-.04-.04-.11-.04-.15s0-.11-.04-.15c0-.04-.04-.08-.04-.11-.04-.08-.04-.15-.08-.19v-.04s0-.04-.04-.04-.04,.04-.04,.04c0,.04,.04,.11,.04,.15s.04,.08,.04,.11v.08s.04,.08,.04,.11v.11c.04,.08,.04,.19,.08,.27,0,.04,0,.08,.04,.11,0,.04,.04,.08,.04,.11s0,.08,.04,.11c0,.04,.04,.08,.04,.11s0,.11,.04,.15l.11,.23s0,.08,.04,.08c.04,.08,.04,.15,.08,.23,.04,.11,.08,.19,.11,.3s.04,.23,.08,.3c.04,.04,.08,.08,.08,.11s0,.08,.04,.08c0,.04,.04,.08,.04,.11s0,.08,.04,.08c0,.04,.04,.08,.04,.11,.04,.04,.04,.11,.08,.15,.04,.04,.04,.08,.08,.11,.04,.04,.04,.11,.04,.15l.11,.23c.04,.08,.04,.15,.08,.19,.04,.08,.08,.11,.11,.19,.04,.04,.04,.08,.08,.15,0,.04,.04,.08,.08,.11,.04,.04,.04,.08,.08,.15,0,.04,.04,.08,.04,.11,.04,.04,.04,.08,.08,.11,.04,.04,.04,.08,.08,.15,0,.04,.04,.08,.04,.11,.04,.04,.04,.08,.08,.11,.04,.04,.04,.15,.04,.15-.04,0-.08-.04-.11-.08l-.11-.23c-.04-.08-.08-.11-.11-.19-.04-.04-.08-.15-.08-.19-.04-.04-.08-.08-.08-.11s-.04-.08-.04-.11c-.04-.04-.08-.08-.11-.15-.04-.08-.04-.11-.08-.19,0-.04-.04-.08-.04-.08,0-.04-.04-.08-.04-.11l-.11-.23-.11-.23s-.04-.08-.08-.11c-.04-.08-.04-.11-.08-.19,0-.04-.04-.08-.08-.11-.04-.04-.04-.11-.04-.15-.04-.11-.11-.23-.15-.34-.04-.04-.04-.08-.04-.15-.04-.04-.04-.08-.08-.11l-.11-.34s-.04-.11-.08-.15c-.04-.08-.04-.19-.08-.27-.04-.15-.08-.3-.15-.42,0-.04,0-.08-.04-.11,0-.04-.04-.08-.04-.11s0-.08-.04-.11l-.11-.34s0-.08-.04-.11t-.04-.08v-.08c-.04-.08-.04-.19-.08-.27,0-.04,0-.08-.04-.11-.04-.11-.08-.27-.11-.38,0-.04-.04-.04-.04-.04-.04,0,0,.04,0,.04,0,.04,.04,.11,.04,.15v.15c.04,.08,.04,.15,.08,.23v.11c.04,.11,.04,.27,.11,.38,.04,.11,.04,.23,.08,.3v.15s.04,.08,.04,.11,0,.04,.04,.08c.04,.08,.04,.15,.08,.23,0,.04,.04,.11,.08,.15v.08s.04,.11,.04,.15c.04,.11,.08,.23,.11,.3,.04,.04,.04,.11,.04,.15,.08,.23,.15,.46,.23,.65,0,.04,.04,.11,.04,.15s.04,.08,.08,.15c.04,.04,.04,.11,.04,.19,.04,.08,.08,.11,.08,.19,0,.04,.04,.08,.04,.11s.04,.04,.04,.08c.04,.04,.04,.11,.04,.15,.04,.04,.08,.08,.08,.11,.04,.04,.04,.08,.04,.11,.04,.08,.08,.11,.11,.19t.04,.08s.04,.08,.04,.11h0v.04s.04,.04,.04,.08l.04,.04v.04s.04,.11,.04,.15c.04,.04,.08,.08,.08,.15,.04,.04,.04,.15,0,.15-.11,0-.11-.15-.15-.23-.04-.04-.08-.11-.11-.15,0,0,0-.04-.04-.04t-.04-.04s0-.04-.04-.04c0,0-.04-.04-.04-.08h0c-.04-.08-.08-.15-.08-.19s-.04-.04-.04-.08c-.04-.04-.04-.08-.08-.11,0-.04-.04-.08-.08-.11-.04-.04-.04-.11-.04-.15s-.04-.04-.04-.08c-.04-.04-.04-.11-.08-.19,0-.04-.04-.04-.04-.08-.04-.04-.04-.11-.08-.15-.04-.08-.11-.19-.15-.3-.04-.08-.04-.11-.08-.19-.04-.04-.04-.11-.08-.15,0-.04-.04-.08-.04-.11-.04-.04-.04-.11-.08-.15,0-.04-.04-.11-.04-.15s-.04-.08-.04-.11c-.04-.08-.04-.11-.08-.19-.04-.04-.04-.11-.08-.15,0-.04-.04-.08-.04-.11s-.04-.08-.04-.08c0-.04-.04-.08-.04-.15,0-.04-.04-.11-.04-.15s0-.11-.04-.15c-.04-.15-.11-.34-.15-.49-.04-.08-.04-.15-.04-.23v-.11s-.04-.08-.04-.15c0-.04,0-.08-.04-.11,0-.04-.04-.08-.04-.11-.04-.11-.04-.19-.08-.3,0-.04,0-.08-.04-.11-.04-.11-.04-.27-.08-.38,0-.04,0-.08-.04-.11-.08-.23-.08-.49-.15-.72v-.15s-.04-.11-.04-.15v-.08s-.04-.08-.04-.08c-.04,0-.04,.04,0,.08v.27c.04,.08,.04,.19,.04,.23v.08s.04,.08,.04,.11v.15s.04,.08,.04,.11v.11s.04,.08,.04,.11v.15c.04,.19,.08,.46,.11,.65v.08c.04,.15,.08,.34,.15,.53v.08c0,.08,.04,.11,.04,.19v.08c0,.08,.04,.11,.08,.19v.08s0,.04,.04,.08v.11s.04,.04,.04,.08,0,.08,.04,.11c0,.04,.04,.08,.04,.11s0,.08,.04,.11c.04,.08,.04,.11,.08,.19,0,.04,.04,.11,.04,.15s.04,.08,.04,.11,0,.04,.04,.08c0,.04,.04,.08,.04,.11s0,.08,.04,.11c0,.04,.04,.08,.04,.11s0,.08,.04,.11c0,.04,.04,.08,.04,.08,0,.04,.04,.08,.04,.11s.04,.04,.04,.08,.04,.08,.04,.11c.04,.04,.04,.11,.04,.19v.08s-.04-.04-.08-.08c-.04-.04-.08-.08-.08-.15v-.04s-.04-.08-.04-.11-.04-.04-.04-.08,0-.08-.04-.11c0-.04-.04-.04-.04-.08s0-.04-.04-.08c0-.04-.04-.08-.04-.08,0-.04,0-.08-.04-.08,0-.04-.04-.08-.04-.11s-.04-.08-.04-.11v-.08s-.04-.08-.04-.08t-.04-.08s-.04-.08-.04-.11,0-.08-.04-.08c0-.04-.04-.11-.04-.15s0-.08-.04-.11c0-.04-.04-.08-.04-.15,0-.04,0-.08-.04-.11,0-.04-.04-.08-.08-.15,0-.04,0-.08-.04-.11-.04-.08-.08-.19-.08-.3-.04-.11-.04-.23-.08-.34-.04-.08-.04-.15-.08-.23,0-.04,0-.08-.04-.11-.04-.08-.04-.19-.08-.3,0-.04,0-.11-.04-.15,0-.04,0-.11-.04-.15,0-.04-.04-.08-.04-.11v-.11s-.08-.23-.08-.27v-.11l-.04-.11v-.08s-.04-.15-.04-.15v-.11s-.04-.08-.04-.15v-.15s-.04-.08-.04-.11-.04-.08-.04-.08v-.23c0-.08,0-.11-.04-.15v-.08c0-.08-.04-.11-.08-.11s-.04,.04-.04,.08,0,.08,.04,.11v.57s.04,.11,.04,.15c0,.08,0,.11,.04,.19v.11s.04,.11,.04,.15v.11s.04,.11,.04,.15v.11s0,.08,.04,.11v.04s.04,.11,.04,.15v.08s.04,.11,.04,.15v.08s.04,.08,.04,.15v.08s.04,.08,.04,.11v.11c0,.08,.04,.15,.04,.23,0,.04,.04,.08,.04,.11s0,.08,.04,.11c0,.04,.04,.08,.04,.08v.08s.04,.08,.04,.11v.08s.04,.04,.04,.08v.11s.04,.08,.04,.11v.11c.04,.08,.04,.19,.08,.27,0,.04,0,.08,.04,.15,0,.04,.04,.04,.04,.08v.08s.04,.11,.04,.19c.04,.08,.04,.11,.08,.15,.04,.08,.04,.11,.04,.19,0,.04,.04,.11,.08,.15,0,.04,0,.11,.04,.15,0,.04,.04,.08,.08,.15,.04,.04,.04,.11,.04,.15v.08c.04,.08,.08,.15,.08,.19s0,.08,.04,.08c0,.04,.04,.11,.08,.15,.04,.04,.04,.08,.08,.11,0,.04,.04,.08,.04,.11s.04,.08,.04,.11,0,.04,.04,.08c.04,.11,.11,.23,.15,.34,.04,.08,.04,.11,.08,.19,.04,.04,.04,.08,.08,.15,0,.04,0,.08,.04,.08,.04,.08,.08,.11,.08,.19,0,0,.04,.08,.04,.11h0s-.04-.04-.08-.04c-.08-.08-.08-.19-.11-.3,0-.04-.04-.04-.04-.08s0-.04-.04-.04c-.04-.08-.08-.11-.11-.19-.04-.04-.04-.11-.04-.15-.08-.19-.19-.34-.27-.53-.04-.08-.04-.15-.08-.27-.04-.04-.04-.08-.08-.15,0-.04-.04-.08-.04-.11-.04-.04-.04-.11-.08-.15,0-.04,0-.08-.04-.11,0-.04-.04-.08-.08-.11-.04-.04-.04-.11-.04-.19,0-.04-.04-.08-.04-.11s0-.08-.04-.08c-.04-.08-.08-.11-.08-.19,0-.04,0-.11-.04-.15,0-.04-.04-.08-.08-.11v-.15s-.04-.08-.04-.11v-.08s-.04-.11-.08-.15t-.04-.08s-.04-.08-.04-.11,0-.11-.04-.15c-.04-.08-.04-.11-.08-.19v-.08c0-.08-.04-.11-.04-.19v-.08s-.04-.11-.04-.15,0-.08-.04-.11c-.04-.08-.04-.19-.08-.27v-.08c-.04-.08-.04-.15-.08-.23v-.11s-.04-.08-.04-.15v-.11c-.04-.11-.08-.27-.11-.38v-.23s-.04-.08-.04-.11v-.15h0c0-.08-.04-.19-.04-.23,0-.08,0-.11-.04-.19v-.11c0-.08-.04-.11-.04-.19v-.11s0-.08-.04-.08-.04,.04-.04,.08v.42s0,.08,.04,.11c0,.08,0,.15,.04,.23h0v.08h0v.11c.04,.08,0,.19,.04,.27,.04,.11,.04,.27,.08,.38v.11s.04,.08,.04,.11v.15s.04,.08,.04,.11,0,.11,.04,.15c0,.04,.04,.11,.04,.15,0,.08,0,.11,.04,.19,0,.04,.04,.11,.04,.19v.08s.04,.08,.04,.11v.04c.04,.08,.04,.19,.08,.27v.08s.04,.11,.04,.11v.08s.04,.08,.04,.11,0,.04,.04,.08c0,.04,.04,.08,.04,.11,.04,.08,.04,.15,.04,.23,0,.04,.04,.08,.04,.11s0,.08,.04,.11c.04,.08,.04,.15,.08,.23,.04,.08,.04,.15,.08,.23,0,.04,0,.08,.04,.08,.04,.08,.04,.15,.08,.23,0,.04,0,.08,.04,.11,.04,.08,.08,.11,.08,.19,.04,.08,.04,.11,.04,.15,.04,.08,.08,.15,.08,.23,0,.04,.04,.11,.04,.15s.04,.08,.08,.11c0,.04,.04,.08,.04,.11s.04,.08,.08,.11c.04,.04,.04,.11,.04,.15l.11,.23s0,.08,.04,.08c.04,.04,.04,.11,.08,.15s.04,.11,.04,.15c.04,.08,.04,.11,.04,.19v.04l-.04-.04s-.08-.11-.08-.19c-.04-.11-.11-.23-.15-.3-.04-.04-.04-.11-.08-.19,0-.04-.04-.08-.04-.11-.04-.04-.04-.11-.08-.15l-.11-.23s0-.04-.04-.08c0-.04-.04-.04-.04-.08s-.04-.11-.04-.15c-.04-.08-.08-.19-.11-.27-.04-.08-.04-.15-.08-.27,0-.04-.04-.08-.04-.11s0-.08-.04-.08l-.11-.23s-.04-.08-.04-.11-.04-.11-.04-.15c-.04-.08-.04-.15-.04-.19-.04-.15-.11-.3-.15-.46v-.11c-.04-.08-.04-.15-.08-.23-.04-.08-.04-.19-.04-.27l-.11-.34v-.11c-.04-.08-.04-.19-.08-.27,0-.04,0-.08-.04-.11,0-.04-.08-.04-.08,.04,0,.04,.04,.11,.04,.11v.11c0,.08,.04,.11,.04,.15s0,.11,.04,.15c0,.04,.04,.08,.04,.08,0,.08,0,.11,.04,.19,0,.04,.04,.08,.04,.15v.08s.04,.11,.04,.15v.08s.04,.08,.04,.11,0,.08,.04,.11c.04,.08,.04,.15,.08,.23,.04,.08,.04,.15,.08,.23,.04,.15,.08,.3,.15,.42,0,.04,0,.08,.04,.11,0,.08,.04,.11,.04,.19,0,.04,.04,.04,.04,.08s.04,.08,.04,.11,.04,.04,.04,.08,0,.11,.04,.15c0,.04,.04,.08,.04,.11s0,.08,.04,.11c0,.04,.04,.08,.04,.08,0,.04,0,.08,.04,.08,0,.04,.04,.08,.04,.11s0,.08,.04,.11c0,.04,.04,.08,.04,.08,0,.04,0,.08,.04,.11,.04,.04,.04,.11,.08,.15,0,.04,.04,.08,.04,.11,.04,.04,.04,.08,.08,.11,.04,.08,.04,.11,.08,.19,.04,.11,.08,.19,.11,.3l.11,.23s.04,.08,.04,.11c.04,.04,.04,.08,.08,.11,0,.04,.04,.08,.04,.11,.04,.04,.08,.11,.08,.15s.04,.08,.04,.08c.04,.08,.08,.11,.11,.15,0,.04,.04,.08,.04,.11,.04,.08,.08,.11,.11,.19,.04,.04,.04,.11,.08,.15,.04,.08,.08,.11,.11,.19,.04,.04,.08,.11,.08,.15,.04,.04,.08,.08,.08,.11,.04,.04,.04,.11,.08,.15,.04,.04,.04,.08,.08,.11l.11,.23s.08,.11,.11,.15c.11,.15,.23,.38,.3,.46,.04,.08,.08,.15,.15,.23,.04,.04,.08,.11,.11,.15,.04,.04,.08,.08,.08,.11l.04,.04c1.26,1.64,2.59,2.7,3.69,3.39h0c.57,.38,.91,.46,.91,.46,.08,.04,.04,.08,0,.11l-6.58,4.19s-.08,.04-.04,.08c0,.04,.08,0,.11,0,5.29-1.86,9.1-3.39,11.42-4.49,2.47-1.29,3.27-1.94,3.2-2.28"/></svg>