<?xml version="1.0" encoding="UTF-8"?><svg id="a" xmlns="http://www.w3.org/2000/svg" viewBox="0 0 25 20"><defs><style>.b{fill:#c23c40;fill-rule:evenodd;}</style></defs><path class="b" d="M13.98,2.66c-.07,.07-.31,.44-.31,.89,0,.11,0,2.7,0,2.79,0,.2-.12,.48-.22,.58-.07,.07-.5,.46-.54,.5h.24c.08-.07,.91-.8,.99-.9,.11-.13,.38-.45,.38-.96V2.87c0-.4,.19-.63,.29-.73,.1-.11,.42-.38,.48-.44h-.26c-.06,.05-.97,.88-1.06,.97h0Zm-2.05,10.14l1.01,.88h.68c.69,0,1.32-.29,1.74-.71,.42-.42,.57-.97,.57-1.5v-1.45c0-.49-.31-.77-.39-.86-.05-.05-.34-.32-.34-.32v1.11s.32,.34,.39,.4c.3,.32,.3,.9-.65,1.83-.17,.16-.64,.61-1.3,.61h-1.7Z"/><path class="b" d="M14.75,6.86c-.11,.12-.22,.41-.22,.67v.55h.56c.22,0,.5-.2,.56-.3,0,0,0-.54,0-.54,0,0,.14,.2,.3,.31,.06-.07,.56-.69,.99-.69,.71,0,.55,.89,.26,1.17-.09,.09-.51,.48-.64,.6-.33,.32-.91,.17-.91-.66,0,0-.61,.58-.71,.66-.09,.08-.41,.41-.41,.41v1.45c0,.69-.23,.93-.42,1.13-.07,.08-.85,.79-.96,.87h-.26s.46-.41,.55-.5c.1-.11,.23-.33,.23-.69,0-.09-.01-2.27-.01-2.27h-3.55c-1.24,0-1.5-1.37-1.51-1.74,0-.11,0-1.2,0-1.37,0-.23-.14-.61-.37-.72h.35s.26,.11,.26,.95c0,0-.01,.98-.01,1.03,0,.43,.34,.92,.83,.92h4.02c0-.11,.11-.52,.3-.74,.11-.12,.97-.91,1.07-.99h.26s-.46,.41-.55,.51h0Zm1.32,.82s.23,.31,.34,.4c.43,.35,.64-.03,.35-.42-.11-.16-.56-.11-.69,.03Z"/><path class="b" d="M11.76,10.27c0,.19-.62,.71-.66,.75-.04-.21-.2-.44-.66-.9l.68-.68c.45,.46,.64,.55,.64,.84Zm1.18-7.78c.14,.14,.43,.51,.25,.68-.16,.16-.4,.4-.4,.4-.01-.09-.24-.3-.24-.3,0,0,0,.66,0,.74,0,.3-.12,.38-.12,.38,0,0,.55,.54,.55,1.24,0,.34,0,.65,0,.72,0,.14-.04,.25-.14,.36-.05,.05-.56,.56-.63,.63-.15,.13-.3,.15-.42,.15h-1.89c-.3,0-.6-.23-.6-.46,0-.06,0-.7,0-.7,.1,.11,.19,.24,.43,.24,.19,0,.38-.15,.43-.2,.05-.05,1.43-1.49,1.43-1.49,0,0-.64-.6-1.07-.88-.21-.14-.48,.04-.52,.22-.13,.57,0,1.43,0,1.43l-.52-.52c-.21-.21-.2-.68,.05-.93,.04-.04,.42-.47,.9-.47h.75c.5,0,1.06,.5,1.06,.5,0,0,.08-.09,.08-.17,0-.26,0-.96,0-.96-.38-.38-.43-.77-.25-.95,.34-.34,.46-.46,.46-.46,0,0,0,.41,.39,.81h0Zm-2.37,3.79c-.19,.19-.22,.24-.39,.35h2.12c.58,0,.46-.36,.36-.54-.21-.37-.88-1.06-.88-1.06,0,0-1.17,1.2-1.21,1.25Z"/><path class="b" d="M8.15,8.21h-.35s.37,.21,.37,.74v1.69c0,1.1,.91,2.12,2.01,2.12h.92c.55,0,.75-.13,1.08-.43,.12-.11,.28-.29,.34-.35,.19-.22,.4-.39,.4-.96v-.55c0-.48-.28-.68-.41-.81-.09-.09-.32-.31-.32-.31v1.14s.23,.25,.34,.33c.48,.38,.1,1.04-.35,1.04-.09,0-1.9,0-2.03,0-.75,.02-1.76-.65-1.76-1.77v-.92c0-.95-.26-.95-.26-.95h0Z"/><path class="b" d="M10.37,10.27c0,.19-.62,.71-.66,.75-.04-.21-.2-.44-.66-.9l.68-.68c.46,.46,.64,.55,.64,.84h0Zm-7.1,7.54c-.11,0-.96,0-1.09,0-.34,0-.32-.28-.35-.53v-1.56s.24,0,.51,0c.3,0,.68-.04,1.04,.16,0,0-.26-.63-1.04-.63h-.5v-.5s0-.43-.11-.56c0,0,.67,0,.72,0,.62,0,1.1,0,1.6,.32,0,0-.1-.82-1.29-.82H.42s.41,.35,.4,1.06v2.84c.01,.71,.3,.73,.3,.73H3.42c.52,0,.71-.37,.71-.58v-.27s-.16,.34-.85,.34h0Zm6.15-.24v-1.99c0-.77-.63-.98-1.1-.98-.62,0-.81,.52-.89,.7-.14-.48-.62-.7-1.02-.7-.75,0-.94,.71-.94,.71,0,0-.02-.69-.62-.69h-.59s.34,.14,.34,.74v2.2c0,.73,.29,.74,.29,.74h.97s-.37-.28-.37-.75v-1.96c.01-.09,.16-.38,.58-.38,.24,0,.5,.25,.49,.53v1.82c0,.74,.29,.74,.29,.74h.98s-.37-.26-.37-.75v-1.96c.03-.11,.16-.37,.53-.37,.29,0,.54,.25,.53,.53,0,0,0,1.66,0,1.81,0,.74,.29,.74,.29,.74,.51,0,.98,0,.98,0,0,0-.37-.26-.37-.74h0Zm1.71,0c0,.49,.37,.74,.37,.74,0,0-.46,0-.97,0,0,0-.3,0-.3-.73h0v-2.21c0-.58-.34-.73-.34-.73h.59c.21,0,.64,0,.64,.82v2.11h0Zm3-2.66s-.09-.26-.5-.26c-.61,0-.76,.73-.76,.73-.05-.57-.2-.74-.63-.74h-.59s.34,.14,.34,.74v2.21c0,.73,.29,.74,.29,.74h.97s-.37-.27-.37-.75v-1.81c.03-.16,.11-.29,.24-.37,.32-.21,.76-.16,1.01,.15v-.62Zm4.54,.13c.33,0,.58,.14,.58,.14v-.56h-.81v-.84s-.21,.37-.65,.73c-.28,.23-.86,.51-.86,.51h.62v2.57c0,.71,.3,.71,.3,.71,.53,0,.97,0,.97,0,0,0-.38-.25-.38-.72v-2.55c.26,0,.08,0,.24,0h0Zm2.96,1.11c-.55,.57-.97,.48-1.32,.9,0,0,.06,.57,.49,.77,.15,.07,.75,.29,1.14-.39v.59s-.25,.29-1.05,.29c-.96,0-1.61-.75-1.61-1.77s.53-1.93,1.54-1.94c.99,0,1.52,.79,.8,1.54h0Zm-.6-.23c.16-.3,.29-1.06-.26-1.01-.64,.05-.52,1.75-.52,1.75,.21-.23,.53-.28,.78-.73h0Zm-10.34-1.59c.25,0,.45-.2,.45-.44s-.2-.44-.45-.44-.45,.2-.45,.44,.2,.44,.45,.44h0Zm4.46,3.56c-.22,0-.38-.23-.38-.47,0-.92,.75-1.05,.95-1.29v1.55c-.09,.08-.18,.21-.57,.21Zm.57-2.11c-.23,.4-1.99,.48-1.72,1.84,.11,.54,.47,.7,.92,.7s.7-.23,.81-.44c.07,.41,.27,.43,.27,.43,.51,0,.97,0,.97,0,0,0-.38-.25-.38-.74v-2.07c0-.49-.55-.88-1.13-.88s-.91,.27-.91,.27v.64s.2-.51,.71-.51,.53,.25,.53,.37c0,0,.05,.17-.07,.38h0Zm8.06,1.53c0,.26-.23,.6-.72,.6s-.71-.52-.71-.52v.66s.37,.26,.93,.26c.67,0,1.34-.51,1.32-1.21,0-.25-.09-.46-.23-.64-.23-.3-.63-.51-.95-.71-.18-.11-.28-.31-.28-.38,0-.12,.05-.37,.55-.37s.69,.51,.69,.51v-.62s-.37-.29-.93-.29-1.11,.39-1.1,.88c0,.43,.19,.72,.55,.98,.14,.1,.31,.21,.5,.31,.28,.16,.39,.35,.39,.53h0Z"/></svg>