<?xml version="1.0" encoding="UTF-8"?><svg id="a" xmlns="http://www.w3.org/2000/svg" xmlns:xlink="http://www.w3.org/1999/xlink" viewBox="0 0 25 20"><defs><style>.c{fill:#fff;}.c,.d,.e,.f{fill-rule:evenodd;}.d{fill:#413691;}.e{fill:#ef3138;}.f{fill:url(#b);}</style><linearGradient id="b" x1="-73.21" y1="1003.07" x2="-73.08" y2="1003.07" gradientTransform="translate(31938.91 -3613.76) rotate(-92.3) scale(31.95 -31.95)" gradientUnits="userSpaceOnUse"><stop offset="0" stop-color="#d2068a"/><stop offset=".74" stop-color="#413691"/><stop offset="1" stop-color="#413691"/></linearGradient></defs><path class="c" d="M14,7.52c-.31,.98-.42,1.91-.32,2.99h0c.06,.66,.2,1.37,.42,2.18,.18,.66,.23,1.31,.21,1.94-.15,1.61-1.13,2.83-2.31,3.5h0c.08-.73,.06-1.59-.13-2.65-.25-1.38-.77-1.84-.84-1.93v-.02h.01c.43-.29,.81-.61,.99-.77,.14-.12,.08-.17-.05-.11-.36,.17-.97,.38-1.74,.48-.68,.08-1.48,.07-2.35-.1,0,0-.61-.09-.52-.71,.02-.17,.11-.35,.18-.53,.02-.05,.08-.22,.05-.36,0-.03-.05-.1-.08-.14-.05-.07-.06-.16-.01-.28,.04-.09,.2-.23,.43-.25,.26-.02,.58,.01,.82-.03,.36-.06,.57-.3,.53-.38-.03-.05-.34,.01-.45,.03-.16,.03-.45-.1-.6-.15-.23-.08-.36-.14-.56-.05-.13,.05-.23,.31-.26,.19-.02-.05,.01-.11,.06-.18,.04-.06,.12-.18,.14-.24,.01-.07,.03-.18-.17-.32-.14-.1-.24-.19-.31-.25-.2-.2-.23-.4,.15-.72,.27-.23,.86-.84,1.04-1.21,.03-.06,.17-.29,.01-.53-.12-.18-.14-.21-.17-.28-.09-.17-.02-.32,.12-.54,.07-.11,.12-.24,.27-.71,.17-.52,.43-.98,.8-1.37h0s.44-.48,.91-.62c.12,.19,.36,.45,.84,.69,.49,.25,1.03,.39,1.03,.39,0,0,.68,.19,1.36,.44,.55,.2,1.12,.9,1.12,1.05,0,.3-.3,.58-.59,1.5"/><path class="f" d="M4.2,8.35c0,3.89,2.78,7.12,6.45,7.76-.03,.28-.06,.55-.11,.76-.25,1.24-1.1,2.39-1.56,2.66,1.23-.11,2.21-.48,2.8-1.05h0s-.43,0-.46,0c.23-.09,.46-.2,.69-.33h0c.08-.73,.06-1.59-.13-2.65-.25-1.38-.77-1.84-.84-1.93v-.02h.01c.43-.29,.81-.61,.99-.77,.14-.12,.08-.17-.05-.11-.36,.17-.97,.38-1.74,.48-.68,.08-1.48,.07-2.35-.1,0,0-.61-.09-.52-.71,.02-.17,.11-.35,.18-.53,.02-.05,.08-.22,.05-.36,0-.03-.05-.1-.08-.14-.05-.07-.06-.16-.01-.28,.04-.09,.2-.23,.43-.25,.11-.01,.24,0,.36,0,.16,0,.32,0,.46-.02,.35-.06,.57-.3,.53-.38-.03-.05-.34,.01-.45,.03-.16,.03-.45-.1-.6-.15-.23-.08-.36-.14-.56-.05-.13,.05-.23,.31-.26,.19-.02-.05,.01-.11,.06-.18,.04-.06,.12-.18,.14-.24,.01-.07,.03-.18-.17-.32-.14-.1-.24-.19-.31-.25-.2-.2-.23-.4,.15-.72,.27-.23,.86-.84,1.04-1.21,.03-.06,.17-.29,.01-.53-.12-.18-.14-.21-.17-.28-.09-.17-.02-.32,.12-.54,.07-.11,.12-.24,.27-.71,.17-.52,.43-.98,.8-1.37h0c.03-.08,.07-.68,.42-1.24,.11-.22,.27-.45,.47-.67,.14-.15,.36-.33,.65-.49s.65-.33,1.07-.45c.5-.15,1.09-.25,1.74-.24,.49,0,.95,.05,1.5,.19h0l.07,.02c-.99-.46-2.09-.72-3.25-.72C7.69,.47,4.2,4,4.2,8.35m3.11,.97s.01,.04,.04,.05c.14,.07,.21,.1,.47,.26,.3,.18,.43,.03,.5-.08,.02-.03,.05-.16,.02-.21s-.09-.02-.14,.04c-.07,.06-.23,.03-.28,.02-.05,0-.3-.07-.46-.1-.03,0-.05,0-.07,0-.04,0-.06,.01-.07,.03"/><g><path class="d" d="M10.86,5.68s-1.07-.24-1.41-.22c-.34,.02-.64,.22-.82,.43-.1,.11-.14,.22-.16,.32-.02,.17,.1,.24,.24,.2,.1-.03,.18-.11,.28-.26,.06-.1,.1-.22,.2-.28,.16-.1,.45-.13,.91-.12,.35,0,.64,.03,.71,.03,.13,0,.1-.08,.04-.1"/><path class="d" d="M10.26,6.64c-.19-.11-.45-.11-.5-.12s-.06-.06,.02-.1c.1-.05,.3,0,.31-.04,0-.03-.04-.1-.19-.16-.08-.03-.23-.05-.34-.04-.32,.03-.49,.23-.52,.27-.04,.04-.09,.09-.1,.17-.02,.11,.05,.2,.12,.3,.03,.06,.06,.1,.08,.14,.02,.06,0,.08-.04,.12-.06,.04-.02,.12,.09,.09,.13-.04,.2-.07,.29-.15,.14-.11,.13-.19,.23-.28s.39-.09,.55-.07c.18,.03,.22-.02,.03-.13"/><path class="d" d="M19.87,8.11c0-.35-.1-1.05-.12-1.2-.04-.42-.14-1.01-.47-1.83-.36-.89-.64-1.52-1.51-2.37-1.02-1.01-2.23-1.43-2.52-1.52l-.07-.02h0c-.55-.15-1.01-.19-1.5-.19-1.74-.03-3.01,.7-3.46,1.18-.21,.22-.36,.46-.47,.67-.35,.56-.39,1.16-.42,1.24h0s.44-.49,.91-.62c.12,.19,.36,.45,.84,.69,.49,.25,1.03,.39,1.03,.39,0,0,.68,.19,1.36,.44,.55,.2,1.12,.9,1.12,1.05,0,.3-.3,.58-.59,1.5-.31,.98-.42,1.91-.32,2.99h0c.06,.66,.2,1.37,.42,2.18h0c.18,.66,.23,1.31,.21,1.94-.15,1.61-1.13,2.83-2.31,3.5h0c-.22,.13-.45,.24-.69,.33,.03,0,.42,0,.46,0,.99-.01,2.39-.2,3.58-1.46,.41-.43,.74-.89,.94-1.31,.08-.18,.44-.81,.64-2.07,.03-.17,.12-.71,.12-.71,0,0,.06,.39,.06,.73,0,.47,.03,1.06-.25,1.96,.1-.02,.56-.37,1.12-1.12,.2-.27,.39-.56,.56-.85,.79-1.24,1.36-2.73,1.33-5.53"/></g><path class="e" d="M15.58,5.36c0,.05,.01,.07,.06,.03,.22-.17,.57-.44,1.06-.53,.58-.1,.91-.39,1.06-.71,.09-.19,.16-.54,.45-.75,.09-.07,0-.09-.08-.08-.07,.01-.46,.12-.71,.39-.17-.18-.15-.42-.13-.56,.01-.04-.02-.07-.08-.03-.19,.15-.32,.36-.36,.5,0,0-.15-.11-.07-.38,.01-.05-.02-.03-.03-.02-.27,.2-.25,.5-.25,.54,0,0-.28-.15-.7-.21-.07-.28-.52-.36-.6-.07-.07,.26,.37,.46,.55,.24,0,0,.6,.06,1.13,.59,.05,.05,.07,.1,.04,.13-.02,.02-.1-.02-.19-.09-.11-.07-.83-.54-1.45-.22-.03,.02-.03,.04,0,.05,.12,.03,.38,.12,.45,.3-.17,.04-.43,.15-.62,.54-.05,.1,.01,.12,.07,.07,.06-.05,.45-.26,.6-.25,0,0-.13,.19-.18,.49m4.98-2.97c-.02,.2,.04,.76,.19,1.28,.16,.55-.13,1.04-.62,1.33-.16-.24-.47-.36-.75-.37-.16,0-.12,.06-.04,.09,1.16,.48,.75,1.83,.6,2.12-.15,.29-.12,.68-.12,.68-.36-.11-.69-.04-.98,.01-.57,.09-.96-.01-1.25-.15-.24-.11-.61-.36-.67-.83-.01-.09-.07-.15-.1,.01-.06,.27-.02,.61,.18,.82-.21,1.05-2.28,.98-2.28,.98-.14-.45-1.08-.59-1.29-1.25-.1-.31-.02-.64-.02-.64,.54,.13,.85-.13,1.03-.35,.1-.13,.02-.13-.05-.09-.68,.43-1.32,0-1.45-.61-.18-.67-.83-.89-.83-.89,.47-.3,.34-.81,.59-1.25,.65-1.15,1.57-.8,1.57-.8,.09,.27,.36,.47,.63,.55,.16,.05,.13-.03,.06-.08-.66-.47-.49-1.22,.02-1.57,.9-.61,1.05-.88,1.05-.88,.17,.13,.6,.23,1.06,.27,1.03,.09,1.28,.63,1.3,.84-.12,.06-.33,.26-.43,.57-.05,.16,.03,.13,.08,.06,.4-.55,.9-.45,1.36-.23,.29,.14,.72,.48,1.14,.39"/></svg>