<?xml version="1.0" encoding="UTF-8"?><svg id="a" xmlns="http://www.w3.org/2000/svg" viewBox="0 0 25 20"><defs><style>.b,.c{fill:#28a3dc;}.c{fill-rule:evenodd;}</style></defs><rect class="b" x="7.7" y="7.98" width="9.35" height="1.63"/><circle class="b" cx="7.71" cy="6.3" r="1.36"/><circle class="b" cx="10.78" cy="6.3" r="1.36"/><circle class="b" cx="13.88" cy="6.3" r="1.36"/><circle class="b" cx="16.97" cy="6.3" r="1.36"/><rect class="b" x="11.2" y="3.5" width="2.32" height=".75"/><rect class="b" x="11.97" y="2.73" width=".77" height="2.35"/><polygon class="c" points=".3 11.08 2.56 11.08 2.56 13.4 4.86 11.08 7.24 11.08 4.37 13.97 7.64 17.27 4.86 17.27 2.58 14.99 2.58 17.27 .3 17.27 .3 11.08"/><polygon class="c" points="10.05 15.75 10.05 11.1 7.72 11.1 7.72 15.75 7.72 17.27 10.05 17.27 13.89 17.27 13.89 15.75 10.05 15.75"/><polygon class="c" points="14.69 11.1 18.54 11.1 19.66 14.57 20.8 11.1 24.7 11.1 24.7 17.26 22.38 17.26 22.38 12.71 20.8 17.26 18.54 17.26 16.99 12.71 16.99 17.26 14.69 17.26 14.69 11.1"/></svg>