<?xml version="1.0" encoding="UTF-8"?><svg id="a" xmlns="http://www.w3.org/2000/svg" viewBox="0 0 25 20"><defs><style>.b{fill:#002331;}</style></defs><path class="b" d="M14.73,.43c-2.17,0-4.18,1.54-5.32,2.66-4.06,3.96-6.21,6.64-6.21,6.64H21.29l.81-1.81H7.51s1.1-1.51,3.47-3.75c.6-.56,2.16-1.95,3.75-1.95,1.04,0,1.86,.65,1.86,1.54s-.74,1.12-.74,1.12c.08-.37-.17-1.39-1.16-1.39s-1.45,.78-1.45,1.3c0,1.08,.98,1.85,2.12,1.85,2.19,0,3.2-1.55,3.2-3.06S17.08,.43,14.73,.43Z"/><path class="b" d="M2.89,10.67s.95,2.73,2.21,5.34c1.07,2.22,2.83,3.56,4.99,3.56,2.03,0,3.4-1.54,3.4-3.02,0-1.67-1.27-2.77-2.79-2.77-1.61,0-1.95,1.21-1.95,1.52,0,.71,.59,1.36,1.34,1.36,1.18,0,1.27-.94,1.27-.94,0,0,.36,.23,.36,.83s-.49,1.32-1.63,1.32c-.91,0-2.24-.48-3.17-2.42-1.08-2.28-1.16-2.95-1.16-2.95h14.28l.81-1.83H2.89Z"/></svg>