<?xml version="1.0" encoding="UTF-8"?><svg id="a" xmlns="http://www.w3.org/2000/svg" xmlns:xlink="http://www.w3.org/1999/xlink" viewBox="0 0 25 20"><defs><style>.e{fill:#fff;}.e,.f,.g,.h{fill-rule:evenodd;}.f{fill:url(#c);}.g{fill:url(#b);}.h{fill:url(#d);}</style><linearGradient id="b" x1="-2.82" y1="971.08" x2="-3.03" y2="971.52" gradientTransform="translate(173.34 38857.08) scale(55.88 -39.99)" gradientUnits="userSpaceOnUse"><stop offset="0" stop-color="#be0000"/><stop offset=".39" stop-color="#de0000"/><stop offset=".77" stop-color="#f60000"/><stop offset="1" stop-color="red"/></linearGradient><linearGradient id="c" x1="-5.94" y1="967.38" x2="-5.94" y2="967.56" gradientTransform="translate(34.98 4015.7) scale(3.77 -4.14)" gradientUnits="userSpaceOnUse"><stop offset="0" stop-color="#fff" stop-opacity="0"/><stop offset=".51" stop-color="#e0e0e0" stop-opacity=".26"/><stop offset=".67" stop-color="#c5c5c5" stop-opacity=".55"/><stop offset=".82" stop-color="#b5b5b5" stop-opacity=".81"/><stop offset="1" stop-color="#afafaf"/></linearGradient><linearGradient id="d" x1="-2.88" y1="970.95" x2="-2.56" y2="970.95" gradientTransform="translate(59.75 25553.28) scale(19.76 -26.31)" gradientUnits="userSpaceOnUse"><stop offset="0" stop-color="#fff" stop-opacity="0"/><stop offset=".29" stop-color="#ededed" stop-opacity=".28"/><stop offset=".89" stop-color="#bdbdbd" stop-opacity=".85"/><stop offset="1" stop-color="#afafaf"/></linearGradient></defs><path class="g" d="M24.58,18.65L10.46,4.37c-1.88-1.89-4.43-3.02-7.09-3.02H.42l.22,.58,.98,2.59,5.34,14.13H24.58Z"/><path class="e" d="M9.18,13.29c.03,.21,.19,.38,.4,.41,2.93,.46,5.77,1.67,8.24,3.66,.01,.01,.03,.01,.06,.01,.02,0,.04-.01,.06-.03,.03-.03,.03-.09,0-.12-1.71-1.8-3.81-3.24-6.15-4.19l-.72-.29c-.37-.15-.62-.52-.62-.93,.04-1.53,3.66-1.22,4.03-1.96l.06-.13c-.75-.63-1.63-1.12-2.6-1.39-.02,.04-.03,.22,.16,.54,.22,.35-.24,.91-.9,.31l-.06-.04C6.25,4.64,2.57,6.97,.63,1.92l.99,2.58c1.93,3.3,7,3.65,7.56,8.79Z"/><path class="f" d="M12.09,8.88c.07,.12,.07,.27,.01,.38-.06,.12-.19,.2-.35,.2v1.21c.53-.15,1.13-.25,1.63-.35v-.68s-.81,.05-1.3-.76h0Z"/><path class="h" d="M.63,1.93l.99,2.58c1.93,3.3,7,3.66,7.56,8.8-.57-6.57-3.44-5.6-6.53-8.58-.79-.58-1.47-1.4-2.02-2.8Z"/></svg>