<?xml version="1.0" encoding="UTF-8"?><svg id="a" xmlns="http://www.w3.org/2000/svg" viewBox="0 0 25 20"><defs><style>.b{fill:#7a003c;}.b,.c,.d{fill-rule:evenodd;}.c{fill:#92979b;}.d{fill:#808184;}</style></defs><path class="d" d="M7.25,3.58l5.53-.33c-2.92-.1-4.65-.1-5.2-.04l-.82,.18c-.1,.1,.08,.16,.49,.19h0Z"/><path class="d" d="M6.02,4.96l9.09-.2-8.8-.31c-1.17-.08-1.81,0-1.91,.21-.18,.29,.39,.39,1.62,.29h0Z"/><path class="d" d="M2.81,6.71l13.72-.49-12.36-.16c-.93,0-1.42,.1-1.42,.29l.06,.35h0Z"/><path class="d" d="M3.73,8.54l13.78-.62-14.93-.23c-.39,.04-.6,.14-.64,.33-.06,.43,.53,.58,1.79,.53h0Z"/><path class="d" d="M1.74,10.12l16.31-.41-15.08-.43c-.97,0-1.48,.16-1.56,.53-.02,.16,.1,.29,.33,.31h0Z"/><path class="d" d="M1.6,11.77l5.16-.06,.72-.82H2.32c-.78,0-1.13,.17-1.03,.53,.02,.2,.12,.33,.31,.35h0Z"/><path class="d" d="M2.75,13.5l3.27-.23,.43-.74-3.83,.06c-.74,0-1.11,.16-1.11,.45,0,.23,.1,.37,.27,.39l.97,.08h0Z"/><path class="d" d="M3.26,15.06l8.31-.33-.58-.58-8.02,.06-.84,.1c-.1,.08-.14,.19-.1,.37,.06,.35,.49,.49,1.23,.39h0Z"/><path class="d" d="M12.68,16.09l-8.27-.06c-1.01,0-1.46,.12-1.44,.41,.1,.37,.66,.47,1.73,.37l8.49-.19-.51-.53h0Z"/><path class="c" d="M13.71,17.79l-8.89-.08c-.19,0-.29,.08-.29,.23,0,.29,.62,.43,1.85,.35l8.21-.29-.88-.21h0Z"/><path class="c" d="M8.11,19.5l4.87-.16-5.1-.19c-.68-.1-1.03-.04-1.03,.19l1.26,.16h0Z"/><path class="b" d="M21.94,1.26c-1.77,.76-5.22,2.76-10.31,6.07,2.63-1.46,5.04-2.59,7.28-3.41l3.99-1.32,.78,.06c.16,.1-.08,.23-.62,.39-.93,.29-2.67,1.01-5.2,2.18-2.92,1.32-4.59,2.26-5.08,2.84l3.37,.08c-.49,.6-1.07,.93-1.75,.97l-.64,.02c.74,1.21,1.95,1.89,3.6,1.99l1.13,.06,.06,.88-4.73,.47,4.57,.29c.06,.68,.04,1.03-.06,1.03h-4.61l4.24,.62-.25,1.09-3.83,.29,3.41,.37-.8,1.09-2.08,.27,1.62,.35-1.77,1.23c-1.26-1.27-2.22-2.34-2.82-3.13l-1.25-1.73-1.71,.37c1.5-1.07,2.3-1.89,2.43-2.37-.04-.93-.1-1.56-.19-1.91l-.62,.64c-.1-.93-.25-1.52-.41-1.75l-.23,.72-1.03,.9,.74-.06c-.45,2.49-1.46,4.09-3.06,4.73l-.93-.97,.64-.58-.97,.29-.19-.29c.95-1.58,1.69-2.69,2.28-3.33l2.82-2.57c1.6-1.32,3.06-2.43,4.44-3.31,3.6-2.18,6.21-3.56,7.78-4.15,.62-.23,.88-.19,.72,.06l-.72,.55h0Z"/></svg>