<?xml version="1.0" encoding="UTF-8"?><svg id="a" xmlns="http://www.w3.org/2000/svg" viewBox="0 0 25 20"><defs><style>.b{fill:#f99c1c;}</style></defs><path class="b" d="M7.71,18.24s2.93-4.28,3.14-4.64c.26-.43,.23-1.04,0-1.41-.12-.19-4.19-6.59-4.19-6.59,0,0-.72,1.09-.95,1.42-.23,.33-.36,.75,.03,1.42,0,0,2.91,4.59,3.03,4.79,.24,.37,.23,1.06-.04,1.5-.22,.35-3.22,4.73-3.22,4.73H14.18c.88,0,1.36-.34,1.79-.95,.37-.52,1.79-2.59,2.01-2.91,.22-.33,.65-.54,.84-.54h.68l-1.32-2.01h-2.11c-.4,0-.89,.36-1.14,.74-.2,.3-1.64,2.46-1.9,2.8-.15,.2-.27,.24-.39,.24-.06,0-.25,0-.27,0,.09-.17,2.51-3.69,2.98-4.47,.58-.95,.71-2.21,.02-3.42-.25-.44-5.28-8.37-5.28-8.37,0,0-.67,.96-.95,1.38-.23,.34-.3,.78,.03,1.42,0,0,4.22,6.71,4.42,7.02,.49,.77,.43,1.79,0,2.49-.35,.57-3.27,4.98-3.27,4.98h2.31c.84,0,1.04-.31,1.27-.57,.23-.26,1.49-2.16,1.63-2.37,.15-.2,.51-.76,.99-.76h1.52v.04c-.32,.07-.64,.26-.87,.58-.23,.31-1.76,2.57-1.94,2.84-.23,.33-.5,.65-1.16,.65"/></svg>