<?xml version="1.0" encoding="UTF-8"?><svg id="a" xmlns="http://www.w3.org/2000/svg" viewBox="0 0 25 20"><defs><style>.b{fill:#fbc707;}.c{fill:#c60a8d;}.d{fill:#361d66;}</style></defs><path class="b" d="M22.41,12.43c-.18-.4-.4-.77-.68-1.11-.26-.31-.56-.6-.89-.84-.16-.13-.35-.24-.54-.33-.08-.05-.19-.11-.27-.16,.08-.03,.19-.08,.27-.13,.19-.08,.38-.19,.54-.32,.33-.24,.62-.52,.89-.84,.27-.33,.49-.7,.68-1.11s.33-.84,.41-1.3c.03-.32,.05-.65,.05-.95v-.43c-.03-.39-.11-.77-.24-1.14-.13-.35-.3-.73-.52-1.06-.21-.35-.47-.66-.76-.95-.3-.28-.63-.54-.97-.76-.37-.22-.77-.38-1.19-.49-.44-.14-.89-.21-1.35-.22-.45-.02-.89,.02-1.33,.11-.4,.11-.8,.26-1.17,.46-.38,.19-.7,.43-1,.73-.28,.28-.52,.6-.7,.95-.19,.35-.33,.73-.38,1.14-.05,.22-.05,.41-.05,.62,0,.19,0,.35,.03,.52-.38-.22-.76-.41-1.14-.52-.46-.16-1-.24-1.54-.27-.52,0-1,.05-1.46,.16-.45,.09-.87,.24-1.27,.46-.35,.19-.73,.43-1.08,.73-.22,.19-.44,.38-.65,.6,0,0-.33,.32-.49,.54-.19,.19-.38,.44-.57,.68l-.44,.54c-.11,.16-.22,.3-.35,.44-.16,.22-.35,.41-.54,.6-.32,.33-.67,.62-1.06,.87l-.25,.16-.15,.08c-.05,.03-.11,.05-.11,.11,0,.08,.05,.11,.11,.13l.16,.08,.24,.16c.38,.24,.73,.54,1.06,.87,.19,.19,.38,.38,.54,.6,.13,.13,.24,.27,.35,.43l.44,.54c.19,.24,.38,.49,.57,.68,.16,.22,.49,.52,.49,.52,.22,.24,.44,.43,.65,.62,.35,.3,.73,.54,1.08,.73,.4,.22,.83,.37,1.27,.46,.46,.13,.95,.16,1.46,.16,.54-.03,1.08-.11,1.54-.27,.38-.11,.76-.3,1.14-.52-.03,.16-.03,.33-.03,.52,0,.22,0,.41,.05,.62,.05,.41,.19,.78,.38,1.14,.19,.35,.43,.68,.7,.95,.3,.3,.62,.54,1,.73,.35,.19,.76,.35,1.17,.46,.44,.09,.88,.13,1.33,.11,.49,0,.92-.08,1.35-.22,.42-.11,.82-.27,1.19-.49,.35-.22,.68-.49,.97-.76,.3-.3,.54-.6,.76-.95,.22-.33,.38-.7,.52-1.06,.13-.38,.22-.76,.24-1.17v-.41c0-.3-.03-.62-.05-.95-.08-.44-.22-.88-.41-1.29"/><path class="d" d="M21.28,12.86c-.15-.36-.37-.68-.62-.98-.24-.29-.54-.54-.87-.73-.33-.21-.7-.37-1.08-.46-.38-.13-.79-.19-1.19-.19-.44,0-.84,.05-1.27,.16-.35,.08-.68,.19-1,.35-.3,.14-.57,.33-.81,.52-.24,.16-.49,.35-.7,.54-.24,.16-.46,.33-.7,.49-.23,.15-.48,.27-.73,.38-.3,.08-.6,.13-.89,.13-.41,0-.81-.08-1.19-.24-.37-.15-.7-.38-.98-.68-.29-.27-.52-.62-.65-1-.16-.35-.21-.76-.21-1.17,0-.38,.05-.78,.22-1.14,.13-.38,.35-.7,.65-1,.27-.3,.6-.52,.97-.68s.78-.24,1.19-.24c.3,0,.6,.05,.89,.13,.27,.11,.52,.24,.73,.38,.24,.16,.46,.33,.7,.52,.22,.16,.46,.35,.7,.54,.24,.16,.52,.35,.81,.49,.33,.16,.65,.27,1,.35,.42,.11,.84,.16,1.27,.16,.41,0,.81-.05,1.19-.16,.38-.11,.75-.27,1.08-.49,.33-.19,.62-.44,.87-.73,.27-.3,.46-.62,.62-.98,.16-.38,.27-.76,.33-1.17,.05-.43,.05-.87-.03-1.3-.08-.41-.22-.81-.41-1.17s-.44-.66-.71-.93c-.28-.28-.6-.52-.95-.7-.36-.17-.73-.29-1.11-.38-.4-.09-.81-.11-1.22-.05-.4,.05-.78,.17-1.14,.35-.33,.16-.65,.41-.89,.68-.27,.27-.46,.6-.62,.95-.13,.35-.24,.73-.27,1.11,0,.38,.03,.78,.16,1.17,0,.05,.03,.11,.05,.16,0,.03,0,.05,.03,.08,0,.03,0,.05,.03,.08,0,0,.03,.03,.05,.03,0,0,.03-.03,.03-.05v-.16c.03-.22,.08-.41,.16-.6,.16-.35,.41-.65,.7-.86,.33-.19,.7-.3,1.09-.33,.41-.03,.81,.03,1.17,.22,.33,.16,.6,.43,.78,.76s.27,.73,.27,1.11-.11,.78-.33,1.11c-.2,.34-.49,.61-.84,.78-.35,.16-.76,.24-1.14,.19-.27-.03-.54-.1-.78-.22-.25-.12-.49-.26-.7-.43-.24-.19-.49-.38-.7-.57-.25-.22-.49-.43-.73-.62-.25-.21-.54-.4-.84-.54-.31-.18-.65-.33-1-.43-.39-.11-.79-.16-1.19-.16s-.81,.03-1.22,.13c-.35,.08-.68,.19-1,.35-.27,.16-.54,.35-.81,.57-.24,.19-.46,.43-.68,.68-.22,.24-.41,.49-.6,.73-.22,.24-.41,.52-.6,.76-.22,.24-.41,.46-.65,.7-.21,.22-.43,.41-.7,.6l-.16,.08s-.08,.05-.11,.08c-.03,0-.08,.03-.08,.05,0,.05,.05,.08,.08,.11,.03,0,.08,.03,.11,.05,.05,.03,.11,.05,.16,.11,.27,.16,.49,.35,.7,.57,.25,.22,.44,.46,.65,.7,.19,.24,.38,.52,.6,.76,.19,.24,.38,.49,.6,.73,.22,.24,.43,.49,.68,.68,.27,.22,.54,.41,.81,.57,.33,.16,.65,.27,1,.35,.41,.11,.81,.14,1.22,.14s.81-.05,1.19-.16c.35-.11,.68-.24,1-.41,.3-.16,.57-.35,.84-.57,.24-.19,.49-.41,.73-.6,.22-.22,.46-.41,.7-.6,.22-.16,.46-.32,.7-.43s.52-.19,.78-.22c.38-.05,.78,.03,1.14,.19s.65,.46,.84,.78c.22,.33,.33,.73,.33,1.11,0,.41-.08,.78-.27,1.11-.18,.32-.46,.59-.78,.76-.35,.19-.76,.24-1.17,.22-.38,0-.76-.13-1.08-.33-.3-.22-.55-.52-.7-.86-.08-.19-.14-.39-.16-.6v-.16s-.03-.05-.03-.05c-.03,0-.05,.03-.05,.03-.03,.03-.03,.05-.03,.08-.03,.03-.03,.05-.03,.08-.03,.05-.05,.11-.05,.16-.14,.38-.16,.78-.16,1.17,.03,.38,.13,.76,.27,1.11,.16,.35,.35,.68,.62,.95,.24,.27,.57,.52,.89,.68,.35,.19,.76,.3,1.14,.35,.41,.05,.84,.03,1.22-.05,.38-.09,.76-.21,1.11-.38,.35-.19,.65-.43,.95-.7,.27-.27,.52-.57,.7-.92s.33-.76,.41-1.17c.08-.43,.08-.87,.03-1.3-.06-.4-.17-.79-.33-1.16"/><path class="c" d="M15.51,9.99l-.03-.03c-.49-.11-.92-.38-1.3-.65-.43-.32-.84-.65-1.25-.95-.43-.3-.92-.54-1.43-.57-.42-.03-.83,.06-1.19,.27-.33,.19-.6,.46-.78,.78-.22,.35-.3,.76-.3,1.14v.03c0,.38,.08,.78,.3,1.14,.19,.32,.46,.6,.78,.78,.35,.19,.78,.3,1.19,.27,.52-.03,1-.27,1.43-.57,.41-.3,.81-.62,1.25-.95,.38-.27,.81-.54,1.3-.65s.03-.03,.03-.05Z"/></svg>