<?xml version="1.0" encoding="UTF-8"?><svg id="a" xmlns="http://www.w3.org/2000/svg" viewBox="0 0 25 20"><defs><style>.b{fill:none;stroke:#cf4037;stroke-miterlimit:33.89;stroke-width:.81px;}.c{fill:#cf4037;fill-rule:evenodd;}</style></defs><path class="b" d="M3.95,10C3.95,5.02,7.78,.99,12.5,.99s8.55,4.03,8.55,9.01-3.83,9.01-8.55,9.01S3.95,14.98,3.95,10Z"/><path class="c" d="M15.08,8.02c-.39-2.79-2.7-4.17-4.13-5-1.33-.77-2.53-1.11-2.56-1.02,1.52,1.25,2.49,3.19,2.49,5.38,0,3.58-2.62,6.52-5.95,6.79l.21,.33c4.26-.68,15.68-2.85,15.68-2.85l.03-.25-6.92-.24c.76-.83,1.29-2.23,1.16-3.14h0Z"/></svg>